<?xml version="1.0" encoding="UTF-8"?>
<!DOCTYPE svg PUBLIC "-//W3C//DTD SVG 1.1//EN"
    "http://www.w3.org/Graphics/SVG/1.1/DTD/svg11.dtd"><svg xmlns="http://www.w3.org/2000/svg" height="769.8004" stroke-opacity="1" viewBox="0 0 1000 770" font-size="1" width="1000.0000" xmlns:xlink="http://www.w3.org/1999/xlink" stroke="rgb(0,0,0)" version="1.1"><defs></defs><g stroke-linejoin="miter" stroke-opacity="1.0" fill-opacity="0.0" stroke="rgb(0,0,0)" stroke-width="0.8773826753016615" fill="rgb(0,0,0)" stroke-linecap="butt" stroke-miterlimit="10.0"><path d="M 681.8182,664.8276 l 0.6235,-1.0800 l -0.6235,-1.0800 l 1.2470,0.0000 l 0.6235,-1.0800 l -0.6235,-1.0800 l -1.2470,-0.0000 l 0.6235,-1.0800 l -0.6235,-1.0800 h 1.2470 l 0.6235,-1.0800 l 0.6235,1.0800 h 1.2470 l 0.6235,-1.0800 l -0.6235,-1.0800 l 1.2470,0.0000 l 0.6235,-1.0800 l -0.6235,-1.0800 l -1.2470,-0.0000 l 0.6235,-1.0800 l -0.6235,-1.0800 l -1.2470,-0.0000 l -0.6235,1.0800 l -0.6235,-1.0800 l -1.2470,-0.0000 l 0.6235,-1.0800 l -0.6235,-1.0800 l 1.2470,0.0000 l 0.6235,-1.0800 l -0.6235,-1.0800 l -1.2470,-0.0000 l 0.6235,-1.0800 l -0.6235,-1.0800 h 1.2470 l 0.6235,-1.0800 l 0.6235,1.0800 h 1.2470 l 0.6235,-1.0800 l -0.6235,-1.0800 l 1.2470,0.0000 l 0.6235,-1.0800 l 0.6235,1.0800 h 1.2470 l -0.6235,1.0800 l 0.6235,1.0800 h 1.2470 l 0.6235,-1.0800 l 0.6235,1.0800 h 1.2470 l 0.6235,-1.0800 l -0.6235,-1.0800 l 1.2470,0.0000 l 0.6235,-1.0800 l -0.6235,-1.0800 l -1.2470,-0.0000 l 0.6235,-1.0800 l -0.6235,-1.0800 h 1.2470 l 0.6235,-1.0800 l 0.6235,1.0800 h 1.2470 l 0.6235,-1.0800 l -0.6235,-1.0800 l 1.2470,0.0000 l 0.6235,-1.0800 l -0.6235,-1.0800 l -1.2470,-0.0000 l 0.6235,-1.0800 l -0.6235,-1.0800 l -1.2470,-0.0000 l -0.6235,1.0800 l -0.6235,-1.0800 l -1.2470,-0.0000 l 0.6235,-1.0800 l -0.6235,-1.0800 l 1.2470,0.0000 l 0.6235,-1.0800 l -0.6235,-1.0800 l -1.2470,-0.0000 l 0.6235,-1.0800 l -0.6235,-1.0800 l -1.2470,-0.0000 l -0.6235,1.0800 l -0.6235,-1.0800 l -1.2470,-0.0000 l -0.6235,1.0800 l 0.6235,1.0800 l -1.2470,-0.0000 l -0.6235,1.0800 l -0.6235,-1.0800 l -1.2470,-0.0000 l 0.6235,-1.0800 l -0.6235,-1.0800 l -1.2470,-0.0000 l -0.6235,1.0800 l -0.6235,-1.0800 l -1.2470,-0.0000 l 0.6235,-1.0800 l -0.6235,-1.0800 l 1.2470,0.0000 l 0.6235,-1.0800 l -0.6235,-1.0800 l -1.2470,-0.0000 l 0.6235,-1.0800 l -0.6235,-1.0800 l 1.2470,0.0000 l 0.6235,-1.0800 l 0.6235,1.0800 l 1.2470,0.0000 l 0.6235,-1.0800 l -0.6235,-1.0800 l 1.2470,0.0000 l 0.6235,-1.0800 l -0.6235,-1.0800 l -1.2470,-0.0000 l 0.6235,-1.0800 l -0.6235,-1.0800 l -1.2470,-0.0000 l -0.6235,1.0800 l -0.6235,-1.0800 l -1.2470,-0.0000 l 0.6235,-1.0800 l -0.6235,-1.0800 l 1.2470,0.0000 l 0.6235,-1.0800 l -0.6235,-1.0800 l -1.2470,-0.0000 l 0.6235,-1.0800 l -0.6235,-1.0800 h 1.2470 l 0.6235,-1.0800 l 0.6235,1.0800 h 1.2470 l 0.6235,-1.0800 l -0.6235,-1.0800 h 1.2470 l 0.6235,-1.0800 l 0.6235,1.0800 l 1.2470,-0.0000 l -0.6235,1.0800 l 0.6235,1.0800 h 1.2470 l 0.6235,-1.0800 l 0.6235,1.0800 h 1.2470 l 0.6235,-1.0800 l -0.6235,-1.0800 h 1.2470 l 0.6235,-1.0800 l -0.6235,-1.0800 l -1.2470,-0.0000 l 0.6235,-1.0800 l -0.6235,-1.0800 h 1.2470 l 0.6235,-1.0800 l 0.6235,1.0800 h 1.2470 l 0.6235,-1.0800 l -0.6235,-1.0800 h 1.2470 l 0.6235,-1.0800 l 0.6235,1.0800 l 1.2470,-0.0000 l -0.6235,1.0800 l 0.6235,1.0800 h 1.2470 l 0.6235,-1.0800 l 0.6235,1.0800 h 1.2470 l -0.6235,1.0800 l 0.6235,1.0800 l -1.2470,0.0000 l -0.6235,1.0800 l 0.6235,1.0800 l 1.2470,-0.0000 l -0.6235,1.0800 l 0.6235,1.0800 h 1.2470 l 0.6235,-1.0800 l 0.6235,1.0800 h 1.2470 l 0.6235,-1.0800 l -0.6235,-1.0800 h 1.2470 l 0.6235,-1.0800 l 0.6235,1.0800 l 1.2470,-0.0000 l -0.6235,1.0800 l 0.6235,1.0800 h 1.2470 l 0.6235,-1.0800 l 0.6235,1.0800 h 1.2470 l 0.6235,-1.0800 l -0.6235,-1.0800 l 1.2470,0.0000 l 0.6235,-1.0800 l -0.6235,-1.0800 l -1.2470,-0.0000 l 0.6235,-1.0800 l -0.6235,-1.0800 h 1.2470 l 0.6235,-1.0800 l 0.6235,1.0800 h 1.2470 l 0.6235,-1.0800 l -0.6235,-1.0800 l 1.2470,0.0000 l 0.6235,-1.0800 l -0.6235,-1.0800 l -1.2470,-0.0000 l 0.6235,-1.0800 l -0.6235,-1.0800 l -1.2470,-0.0000 l -0.6235,1.0800 l -0.6235,-1.0800 l -1.2470,-0.0000 l 0.6235,-1.0800 l -0.6235,-1.0800 l 1.2470,0.0000 l 0.6235,-1.0800 l -0.6235,-1.0800 l -1.2470,-0.0000 l 0.6235,-1.0800 l -0.6235,-1.0800 h 1.2470 l 0.6235,-1.0800 l 0.6235,1.0800 h 1.2470 l 0.6235,-1.0800 l -0.6235,-1.0800 l 1.2470,0.0000 l 0.6235,-1.0800 l 0.6235,1.0800 h 1.2470 l -0.6235,1.0800 l 0.6235,1.0800 h 1.2470 l 0.6235,-1.0800 l 0.6235,1.0800 h 1.2470 l 0.6235,-1.0800 l -0.6235,-1.0800 l 1.2470,0.0000 l 0.6235,-1.0800 l -0.6235,-1.0800 l -1.2470,-0.0000 l 0.6235,-1.0800 l -0.6235,-1.0800 h 1.2470 l 0.6235,-1.0800 l 0.6235,1.0800 h 1.2470 l 0.6235,-1.0800 l -0.6235,-1.0800 l 1.2470,0.0000 l 0.6235,-1.0800 l -0.6235,-1.0800 l -1.2470,-0.0000 l 0.6235,-1.0800 l -0.6235,-1.0800 l -1.2470,-0.0000 l -0.6235,1.0800 l -0.6235,-1.0800 l -1.2470,-0.0000 l 0.6235,-1.0800 l -0.6235,-1.0800 l 1.2470,0.0000 l 0.6235,-1.0800 l -0.6235,-1.0800 l -1.2470,-0.0000 l 0.6235,-1.0800 l -0.6235,-1.0800 l -1.2470,-0.0000 l -0.6235,1.0800 l -0.6235,-1.0800 l -1.2470,-0.0000 l -0.6235,1.0800 l 0.6235,1.0800 l -1.2470,-0.0000 l -0.6235,1.0800 l -0.6235,-1.0800 l -1.2470,-0.0000 l 0.6235,-1.0800 l -0.6235,-1.0800 l -1.2470,-0.0000 l -0.6235,1.0800 l -0.6235,-1.0800 l -1.2470,-0.0000 l 0.6235,-1.0800 l -0.6235,-1.0800 l 1.2470,0.0000 l 0.6235,-1.0800 l -0.6235,-1.0800 l -1.2470,-0.0000 l 0.6235,-1.0800 l -0.6235,-1.0800 h 1.2470 l 0.6235,-1.0800 l 0.6235,1.0800 h 1.2470 l 0.6235,-1.0800 l -0.6235,-1.0800 l 1.2470,0.0000 l 0.6235,-1.0800 l -0.6235,-1.0800 l -1.2470,-0.0000 l 0.6235,-1.0800 l -0.6235,-1.0800 l -1.2470,-0.0000 l -0.6235,1.0800 l -0.6235,-1.0800 l -1.2470,-0.0000 l 0.6235,-1.0800 l -0.6235,-1.0800 l 1.2470,0.0000 l 0.6235,-1.0800 l -0.6235,-1.0800 l -1.2470,-0.0000 l 0.6235,-1.0800 l -0.6235,-1.0800 l -1.2470,-0.0000 l -0.6235,1.0800 l -0.6235,-1.0800 l -1.2470,-0.0000 l -0.6235,1.0800 l 0.6235,1.0800 l -1.2470,-0.0000 l -0.6235,1.0800 l -0.6235,-1.0800 l -1.2470,-0.0000 l 0.6235,-1.0800 l -0.6235,-1.0800 l -1.2470,-0.0000 l -0.6235,1.0800 l -0.6235,-1.0800 l -1.2470,-0.0000 l -0.6235,1.0800 l 0.6235,1.0800 l -1.2470,-0.0000 l -0.6235,1.0800 l 0.6235,1.0800 l 1.2470,0.0000 l -0.6235,1.0800 l 0.6235,1.0800 l -1.2470,-0.0000 l -0.6235,1.0800 l -0.6235,-1.0800 l -1.2470,-0.0000 l -0.6235,1.0800 l 0.6235,1.0800 l -1.2470,-0.0000 l -0.6235,1.0800 l -0.6235,-1.0800 l -1.2470,-0.0000 l 0.6235,-1.0800 l -0.6235,-1.0800 l -1.2470,-0.0000 l -0.6235,1.0800 l -0.6235,-1.0800 l -1.2470,-0.0000 l 0.6235,-1.0800 l -0.6235,-1.0800 l 1.2470,0.0000 l 0.6235,-1.0800 l -0.6235,-1.0800 l -1.2470,-0.0000 l 0.6235,-1.0800 l -0.6235,-1.0800 l -1.2470,-0.0000 l -0.6235,1.0800 l -0.6235,-1.0800 l -1.2470,-0.0000 l -0.6235,1.0800 l 0.6235,1.0800 l -1.2470,-0.0000 l -0.6235,1.0800 l -0.6235,-1.0800 l -1.2470,-0.0000 l 0.6235,-1.0800 l -0.6235,-1.0800 l -1.2470,-0.0000 l -0.6235,1.0800 l -0.6235,-1.0800 l -1.2470,-0.0000 l 0.6235,-1.0800 l -0.6235,-1.0800 h 1.2470 l 0.6235,-1.0800 l -0.6235,-1.0800 l -1.2470,-0.0000 l 0.6235,-1.0800 l -0.6235,-1.0800 h 1.2470 l 0.6235,-1.0800 l 0.6235,1.0800 h 1.2470 l 0.6235,-1.0800 l -0.6235,-1.0800 h 1.2470 l 0.6235,-1.0800 l -0.6235,-1.0800 l -1.2470,-0.0000 l 0.6235,-1.0800 l -0.6235,-1.0800 l -1.2470,-0.0000 l -0.6235,1.0800 l -0.6235,-1.0800 l -1.2470,-0.0000 l 0.6235,-1.0800 l -0.6235,-1.0800 l 1.2470,0.0000 l 0.6235,-1.0800 l -0.6235,-1.0800 l -1.2470,-0.0000 l 0.6235,-1.0800 l -0.6235,-1.0800 h 1.2470 l 0.6235,-1.0800 l 0.6235,1.0800 h 1.2470 l 0.6235,-1.0800 l -0.6235,-1.0800 h 1.2470 l 0.6235,-1.0800 l 0.6235,1.0800 h 1.2470 l -0.6235,1.0800 l 0.6235,1.0800 h 1.2470 l 0.6235,-1.0800 l 0.6235,1.0800 h 1.2470 l 0.6235,-1.0800 l -0.6235,-1.0800 h 1.2470 l 0.6235,-1.0800 l -0.6235,-1.0800 l -1.2470,-0.0000 l 0.6235,-1.0800 l -0.6235,-1.0800 h 1.2470 l 0.6235,-1.0800 l 0.6235,1.0800 h 1.2470 l 0.6235,-1.0800 l -0.6235,-1.0800 h 1.2470 l 0.6235,-1.0800 l -0.6235,-1.0800 l -1.2470,-0.0000 l 0.6235,-1.0800 l -0.6235,-1.0800 l -1.2470,-0.0000 l -0.6235,1.0800 l -0.6235,-1.0800 l -1.2470,-0.0000 l 0.6235,-1.0800 l -0.6235,-1.0800 l 1.2470,0.0000 l 0.6235,-1.0800 l -0.6235,-1.0800 l -1.2470,-0.0000 l 0.6235,-1.0800 l -0.6235,-1.0800 l -1.2470,-0.0000 l -0.6235,1.0800 l -0.6235,-1.0800 l -1.2470,-0.0000 l -0.6235,1.0800 l 0.6235,1.0800 l -1.2470,-0.0000 l -0.6235,1.0800 l -0.6235,-1.0800 l -1.2470,-0.0000 l 0.6235,-1.0800 l -0.6235,-1.0800 l -1.2470,-0.0000 l -0.6235,1.0800 l -0.6235,-1.0800 l -1.2470,-0.0000 l 0.6235,-1.0800 l -0.6235,-1.0800 l 1.2470,0.0000 l 0.6235,-1.0800 l -0.6235,-1.0800 l -1.2470,-0.0000 l 0.6235,-1.0800 l -0.6235,-1.0800 h 1.2470 l 0.6235,-1.0800 l 0.6235,1.0800 h 1.2470 l 0.6235,-1.0800 l -0.6235,-1.0800 l 1.2470,0.0000 l 0.6235,-1.0800 l -0.6235,-1.0800 l -1.2470,-0.0000 l 0.6235,-1.0800 l -0.6235,-1.0800 l -1.2470,-0.0000 l -0.6235,1.0800 l -0.6235,-1.0800 l -1.2470,-0.0000 l 0.6235,-1.0800 l -0.6235,-1.0800 l 1.2470,0.0000 l 0.6235,-1.0800 l -0.6235,-1.0800 l -1.2470,-0.0000 l 0.6235,-1.0800 l -0.6235,-1.0800 h 1.2470 l 0.6235,-1.0800 l 0.6235,1.0800 h 1.2470 l 0.6235,-1.0800 l -0.6235,-1.0800 l 1.2470,0.0000 l 0.6235,-1.0800 l 0.6235,1.0800 l 1.2470,-0.0000 l -0.6235,1.0800 l 0.6235,1.0800 h 1.2470 l 0.6235,-1.0800 l 0.6235,1.0800 h 1.2470 l 0.6235,-1.0800 l -0.6235,-1.0800 l 1.2470,0.0000 l 0.6235,-1.0800 l -0.6235,-1.0800 l -1.2470,-0.0000 l 0.6235,-1.0800 l -0.6235,-1.0800 h 1.2470 l 0.6235,-1.0800 l 0.6235,1.0800 h 1.2470 l 0.6235,-1.0800 l -0.6235,-1.0800 l 1.2470,0.0000 l 0.6235,-1.0800 l 0.6235,1.0800 l 1.2470,-0.0000 l -0.6235,1.0800 l 0.6235,1.0800 h 1.2470 l 0.6235,-1.0800 l 0.6235,1.0800 h 1.2470 l -0.6235,1.0800 l 0.6235,1.0800 l -1.2470,0.0000 l -0.6235,1.0800 l 0.6235,1.0800 l 1.2470,-0.0000 l -0.6235,1.0800 l 0.6235,1.0800 h 1.2470 l 0.6235,-1.0800 l 0.6235,1.0800 h 1.2470 l 0.6235,-1.0800 l -0.6235,-1.0800 l 1.2470,0.0000 l 0.6235,-1.0800 l 0.6235,1.0800 l 1.2470,-0.0000 l -0.6235,1.0800 l 0.6235,1.0800 h 1.2470 l 0.6235,-1.0800 l 0.6235,1.0800 h 1.2470 l 0.6235,-1.0800 l -0.6235,-1.0800 l 1.2470,0.0000 l 0.6235,-1.0800 l -0.6235,-1.0800 l -1.2470,-0.0000 l 0.6235,-1.0800 l -0.6235,-1.0800 h 1.2470 l 0.6235,-1.0800 l 0.6235,1.0800 h 1.2470 l 0.6235,-1.0800 l -0.6235,-1.0800 l 1.2470,0.0000 l 0.6235,-1.0800 l -0.6235,-1.0800 l -1.2470,-0.0000 l 0.6235,-1.0800 l -0.6235,-1.0800 l -1.2470,-0.0000 l -0.6235,1.0800 l -0.6235,-1.0800 l -1.2470,-0.0000 l 0.6235,-1.0800 l -0.6235,-1.0800 l 1.2470,0.0000 l 0.6235,-1.0800 l -0.6235,-1.0800 l -1.2470,-0.0000 l 0.6235,-1.0800 l -0.6235,-1.0800 h 1.2470 l 0.6235,-1.0800 l 0.6235,1.0800 h 1.2470 l 0.6235,-1.0800 l -0.6235,-1.0800 l 1.2470,0.0000 l 0.6235,-1.0800 l 0.6235,1.0800 l 1.2470,-0.0000 l -0.6235,1.0800 l 0.6235,1.0800 h 1.2470 l 0.6235,-1.0800 l 0.6235,1.0800 h 1.2470 l 0.6235,-1.0800 l -0.6235,-1.0800 l 1.2470,0.0000 l 0.6235,-1.0800 l -0.6235,-1.0800 l -1.2470,-0.0000 l 0.6235,-1.0800 l -0.6235,-1.0800 h 1.2470 l 0.6235,-1.0800 l 0.6235,1.0800 h 1.2470 l 0.6235,-1.0800 l -0.6235,-1.0800 l 1.2470,0.0000 l 0.6235,-1.0800 l 0.6235,1.0800 l 1.2470,-0.0000 l -0.6235,1.0800 l 0.6235,1.0800 h 1.2470 l 0.6235,-1.0800 l 0.6235,1.0800 h 1.2470 l -0.6235,1.0800 l 0.6235,1.0800 l -1.2470,0.0000 l -0.6235,1.0800 l 0.6235,1.0800 l 1.2470,-0.0000 l -0.6235,1.0800 l 0.6235,1.0800 h 1.2470 l 0.6235,-1.0800 l 0.6235,1.0800 h 1.2470 l 0.6235,-1.0800 l -0.6235,-1.0800 l 1.2470,0.0000 l 0.6235,-1.0800 l 0.6235,1.0800 l 1.2470,-0.0000 l -0.6235,1.0800 l 0.6235,1.0800 h 1.2470 l 0.6235,-1.0800 l 0.6235,1.0800 h 1.2470 l -0.6235,1.0800 l 0.6235,1.0800 l -1.2470,0.0000 l -0.6235,1.0800 l 0.6235,1.0800 l 1.2470,0.0000 l -0.6235,1.0800 l 0.6235,1.0800 l -1.2470,0.0000 l -0.6235,1.0800 l -0.6235,-1.0800 l -1.2470,0.0000 l -0.6235,1.0800 l 0.6235,1.0800 l -1.2470,0.0000 l -0.6235,1.0800 l 0.6235,1.0800 l 1.2470,-0.0000 l -0.6235,1.0800 l 0.6235,1.0800 h 1.2470 l 0.6235,-1.0800 l 0.6235,1.0800 h 1.2470 l -0.6235,1.0800 l 0.6235,1.0800 l -1.2470,0.0000 l -0.6235,1.0800 l 0.6235,1.0800 l 1.2470,-0.0000 l -0.6235,1.0800 l 0.6235,1.0800 h 1.2470 l 0.6235,-1.0800 l 0.6235,1.0800 h 1.2470 l 0.6235,-1.0800 l -0.6235,-1.0800 l 1.2470,0.0000 l 0.6235,-1.0800 l 0.6235,1.0800 l 1.2470,-0.0000 l -0.6235,1.0800 l 0.6235,1.0800 h 1.2470 l 0.6235,-1.0800 l 0.6235,1.0800 h 1.2470 l 0.6235,-1.0800 l -0.6235,-1.0800 l 1.2470,0.0000 l 0.6235,-1.0800 l -0.6235,-1.0800 l -1.2470,-0.0000 l 0.6235,-1.0800 l -0.6235,-1.0800 h 1.2470 l 0.6235,-1.0800 l 0.6235,1.0800 h 1.2470 l 0.6235,-1.0800 l -0.6235,-1.0800 l 1.2470,0.0000 l 0.6235,-1.0800 l 0.6235,1.0800 l 1.2470,-0.0000 l -0.6235,1.0800 l 0.6235,1.0800 h 1.2470 l 0.6235,-1.0800 l 0.6235,1.0800 h 1.2470 l -0.6235,1.0800 l 0.6235,1.0800 l -1.2470,0.0000 l -0.6235,1.0800 l 0.6235,1.0800 l 1.2470,-0.0000 l -0.6235,1.0800 l 0.6235,1.0800 h 1.2470 l 0.6235,-1.0800 l 0.6235,1.0800 h 1.2470 l 0.6235,-1.0800 l -0.6235,-1.0800 l 1.2470,0.0000 l 0.6235,-1.0800 l 0.6235,1.0800 l 1.2470,-0.0000 l -0.6235,1.0800 l 0.6235,1.0800 h 1.2470 l 0.6235,-1.0800 l 0.6235,1.0800 h 1.2470 l 0.6235,-1.0800 l -0.6235,-1.0800 l 1.2470,0.0000 l 0.6235,-1.0800 l -0.6235,-1.0800 l -1.2470,-0.0000 l 0.6235,-1.0800 l -0.6235,-1.0800 h 1.2470 l 0.6235,-1.0800 l 0.6235,1.0800 h 1.2470 l 0.6235,-1.0800 l -0.6235,-1.0800 l 1.2470,0.0000 l 0.6235,-1.0800 l -0.6235,-1.0800 l -1.2470,-0.0000 l 0.6235,-1.0800 l -0.6235,-1.0800 l -1.2470,-0.0000 l -0.6235,1.0800 l -0.6235,-1.0800 l -1.2470,-0.0000 l 0.6235,-1.0800 l -0.6235,-1.0800 l 1.2470,0.0000 l 0.6235,-1.0800 l -0.6235,-1.0800 l -1.2470,-0.0000 l 0.6235,-1.0800 l -0.6235,-1.0800 h 1.2470 l 0.6235,-1.0800 l 0.6235,1.0800 h 1.2470 l 0.6235,-1.0800 l -0.6235,-1.0800 l 1.2470,0.0000 l 0.6235,-1.0800 l 0.6235,1.0800 h 1.2470 l -0.6235,1.0800 l 0.6235,1.0800 h 1.2470 l 0.6235,-1.0800 l 0.6235,1.0800 h 1.2470 l 0.6235,-1.0800 l -0.6235,-1.0800 l 1.2470,0.0000 l 0.6235,-1.0800 l -0.6235,-1.0800 l -1.2470,-0.0000 l 0.6235,-1.0800 l -0.6235,-1.0800 h 1.2470 l 0.6235,-1.0800 l 0.6235,1.0800 h 1.2470 l 0.6235,-1.0800 l -0.6235,-1.0800 l 1.2470,0.0000 l 0.6235,-1.0800 l -0.6235,-1.0800 l -1.2470,-0.0000 l 0.6235,-1.0800 l -0.6235,-1.0800 l -1.2470,-0.0000 l -0.6235,1.0800 l -0.6235,-1.0800 l -1.2470,-0.0000 l 0.6235,-1.0800 l -0.6235,-1.0800 l 1.2470,0.0000 l 0.6235,-1.0800 l -0.6235,-1.0800 l -1.2470,-0.0000 l 0.6235,-1.0800 l -0.6235,-1.0800 l -1.2470,-0.0000 l -0.6235,1.0800 l -0.6235,-1.0800 l -1.2470,-0.0000 l -0.6235,1.0800 l 0.6235,1.0800 l -1.2470,-0.0000 l -0.6235,1.0800 l -0.6235,-1.0800 l -1.2470,-0.0000 l 0.6235,-1.0800 l -0.6235,-1.0800 l -1.2470,-0.0000 l -0.6235,1.0800 l -0.6235,-1.0800 l -1.2470,-0.0000 l 0.6235,-1.0800 l -0.6235,-1.0800 l 1.2470,0.0000 l 0.6235,-1.0800 l -0.6235,-1.0800 l -1.2470,-0.0000 l 0.6235,-1.0800 l -0.6235,-1.0800 l 1.2470,0.0000 l 0.6235,-1.0800 l 0.6235,1.0800 l 1.2470,0.0000 l 0.6235,-1.0800 l -0.6235,-1.0800 l 1.2470,0.0000 l 0.6235,-1.0800 l -0.6235,-1.0800 l -1.2470,-0.0000 l 0.6235,-1.0800 l -0.6235,-1.0800 l -1.2470,-0.0000 l -0.6235,1.0800 l -0.6235,-1.0800 l -1.2470,-0.0000 l 0.6235,-1.0800 l -0.6235,-1.0800 l 1.2470,0.0000 l 0.6235,-1.0800 l -0.6235,-1.0800 l -1.2470,-0.0000 l 0.6235,-1.0800 l -0.6235,-1.0800 h 1.2470 l 0.6235,-1.0800 l 0.6235,1.0800 h 1.2470 l 0.6235,-1.0800 l -0.6235,-1.0800 h 1.2470 l 0.6235,-1.0800 l 0.6235,1.0800 l 1.2470,-0.0000 l -0.6235,1.0800 l 0.6235,1.0800 h 1.2470 l 0.6235,-1.0800 l 0.6235,1.0800 h 1.2470 l 0.6235,-1.0800 l -0.6235,-1.0800 h 1.2470 l 0.6235,-1.0800 l -0.6235,-1.0800 l -1.2470,-0.0000 l 0.6235,-1.0800 l -0.6235,-1.0800 h 1.2470 l 0.6235,-1.0800 l 0.6235,1.0800 h 1.2470 l 0.6235,-1.0800 l -0.6235,-1.0800 h 1.2470 l 0.6235,-1.0800 l 0.6235,1.0800 l 1.2470,-0.0000 l -0.6235,1.0800 l 0.6235,1.0800 h 1.2470 l 0.6235,-1.0800 l 0.6235,1.0800 h 1.2470 l -0.6235,1.0800 l 0.6235,1.0800 l -1.2470,0.0000 l -0.6235,1.0800 l 0.6235,1.0800 l 1.2470,-0.0000 l -0.6235,1.0800 l 0.6235,1.0800 h 1.2470 l 0.6235,-1.0800 l 0.6235,1.0800 h 1.2470 l 0.6235,-1.0800 l -0.6235,-1.0800 h 1.2470 l 0.6235,-1.0800 l 0.6235,1.0800 l 1.2470,-0.0000 l -0.6235,1.0800 l 0.6235,1.0800 h 1.2470 l 0.6235,-1.0800 l 0.6235,1.0800 h 1.2470 l 0.6235,-1.0800 l -0.6235,-1.0800 l 1.2470,0.0000 l 0.6235,-1.0800 l -0.6235,-1.0800 l -1.2470,-0.0000 l 0.6235,-1.0800 l -0.6235,-1.0800 h 1.2470 l 0.6235,-1.0800 l 0.6235,1.0800 h 1.2470 l 0.6235,-1.0800 l -0.6235,-1.0800 l 1.2470,0.0000 l 0.6235,-1.0800 l -0.6235,-1.0800 l -1.2470,-0.0000 l 0.6235,-1.0800 l -0.6235,-1.0800 l -1.2470,-0.0000 l -0.6235,1.0800 l -0.6235,-1.0800 l -1.2470,-0.0000 l 0.6235,-1.0800 l -0.6235,-1.0800 l 1.2470,0.0000 l 0.6235,-1.0800 l -0.6235,-1.0800 l -1.2470,-0.0000 l 0.6235,-1.0800 l -0.6235,-1.0800 h 1.2470 l 0.6235,-1.0800 l 0.6235,1.0800 h 1.2470 l 0.6235,-1.0800 l -0.6235,-1.0800 l 1.2470,0.0000 l 0.6235,-1.0800 l 0.6235,1.0800 h 1.2470 l -0.6235,1.0800 l 0.6235,1.0800 h 1.2470 l 0.6235,-1.0800 l 0.6235,1.0800 h 1.2470 l 0.6235,-1.0800 l -0.6235,-1.0800 l 1.2470,0.0000 l 0.6235,-1.0800 l -0.6235,-1.0800 l -1.2470,-0.0000 l 0.6235,-1.0800 l -0.6235,-1.0800 h 1.2470 l 0.6235,-1.0800 l 0.6235,1.0800 h 1.2470 l 0.6235,-1.0800 l -0.6235,-1.0800 l 1.2470,0.0000 l 0.6235,-1.0800 l 0.6235,1.0800 l 1.2470,-0.0000 l -0.6235,1.0800 l 0.6235,1.0800 h 1.2470 l 0.6235,-1.0800 l 0.6235,1.0800 h 1.2470 l -0.6235,1.0800 l 0.6235,1.0800 l -1.2470,0.0000 l -0.6235,1.0800 l 0.6235,1.0800 l 1.2470,-0.0000 l -0.6235,1.0800 l 0.6235,1.0800 h 1.2470 l 0.6235,-1.0800 l 0.6235,1.0800 h 1.2470 l 0.6235,-1.0800 l -0.6235,-1.0800 h 1.2470 l 0.6235,-1.0800 l 0.6235,1.0800 l 1.2470,-0.0000 l -0.6235,1.0800 l 0.6235,1.0800 h 1.2470 l 0.6235,-1.0800 l 0.6235,1.0800 h 1.2470 l -0.6235,1.0800 l 0.6235,1.0800 l -1.2470,0.0000 l -0.6235,1.0800 l 0.6235,1.0800 l 1.2470,-0.0000 l -0.6235,1.0800 l 0.6235,1.0800 l -1.2470,0.0000 l -0.6235,1.0800 l -0.6235,-1.0800 l -1.2470,0.0000 l -0.6235,1.0800 l 0.6235,1.0800 l -1.2470,0.0000 l -0.6235,1.0800 l 0.6235,1.0800 l 1.2470,-0.0000 l -0.6235,1.0800 l 0.6235,1.0800 h 1.2470 l 0.6235,-1.0800 l 0.6235,1.0800 h 1.2470 l -0.6235,1.0800 l 0.6235,1.0800 l -1.2470,0.0000 l -0.6235,1.0800 l 0.6235,1.0800 l 1.2470,-0.0000 l -0.6235,1.0800 l 0.6235,1.0800 h 1.2470 l 0.6235,-1.0800 l 0.6235,1.0800 h 1.2470 l 0.6235,-1.0800 l -0.6235,-1.0800 l 1.2470,0.0000 l 0.6235,-1.0800 l 0.6235,1.0800 h 1.2470 l -0.6235,1.0800 l 0.6235,1.0800 h 1.2470 l 0.6235,-1.0800 l 0.6235,1.0800 h 1.2470 l 0.6235,-1.0800 l -0.6235,-1.0800 l 1.2470,0.0000 l 0.6235,-1.0800 l -0.6235,-1.0800 l -1.2470,-0.0000 l 0.6235,-1.0800 l -0.6235,-1.0800 h 1.2470 l 0.6235,-1.0800 l 0.6235,1.0800 h 1.2470 l 0.6235,-1.0800 l -0.6235,-1.0800 l 1.2470,0.0000 l 0.6235,-1.0800 l 0.6235,1.0800 h 1.2470 l -0.6235,1.0800 l 0.6235,1.0800 h 1.2470 l 0.6235,-1.0800 l 0.6235,1.0800 h 1.2470 l -0.6235,1.0800 l 0.6235,1.0800 l -1.2470,0.0000 l -0.6235,1.0800 l 0.6235,1.0800 h 1.2470 l -0.6235,1.0800 l 0.6235,1.0800 h 1.2470 l 0.6235,-1.0800 l 0.6235,1.0800 h 1.2470 l 0.6235,-1.0800 l -0.6235,-1.0800 l 1.2470,0.0000 l 0.6235,-1.0800 l 0.6235,1.0800 h 1.2470 l -0.6235,1.0800 l 0.6235,1.0800 h 1.2470 l 0.6235,-1.0800 l 0.6235,1.0800 h 1.2470 l -0.6235,1.0800 l 0.6235,1.0800 l -1.2470,0.0000 l -0.6235,1.0800 l 0.6235,1.0800 l 1.2470,-0.0000 l -0.6235,1.0800 l 0.6235,1.0800 l -1.2470,0.0000 l -0.6235,1.0800 l -0.6235,-1.0800 l -1.2470,0.0000 l -0.6235,1.0800 l 0.6235,1.0800 l -1.2470,0.0000 l -0.6235,1.0800 l 0.6235,1.0800 l 1.2470,-0.0000 l -0.6235,1.0800 l 0.6235,1.0800 l 1.2470,-0.0000 l 0.6235,-1.0800 l 0.6235,1.0800 l 1.2470,-0.0000 l -0.6235,1.0800 l 0.6235,1.0800 l -1.2470,0.0000 l -0.6235,1.0800 l 0.6235,1.0800 l 1.2470,-0.0000 l -0.6235,1.0800 l 0.6235,1.0800 l -1.2470,0.0000 l -0.6235,1.0800 l -0.6235,-1.0800 l -1.2470,0.0000 l -0.6235,1.0800 l 0.6235,1.0800 l -1.2470,0.0000 l -0.6235,1.0800 l -0.6235,-1.0800 l -1.2470,0.0000 l 0.6235,-1.0800 l -0.6235,-1.0800 l -1.2470,0.0000 l -0.6235,1.0800 l -0.6235,-1.0800 l -1.2470,0.0000 l -0.6235,1.0800 l 0.6235,1.0800 l -1.2470,0.0000 l -0.6235,1.0800 l 0.6235,1.0800 l 1.2470,-0.0000 l -0.6235,1.0800 l 0.6235,1.0800 l -1.2470,0.0000 l -0.6235,1.0800 l -0.6235,-1.0800 l -1.2470,0.0000 l -0.6235,1.0800 l 0.6235,1.0800 l -1.2470,0.0000 l -0.6235,1.0800 l 0.6235,1.0800 l 1.2470,-0.0000 l -0.6235,1.0800 l 0.6235,1.0800 h 1.2470 l 0.6235,-1.0800 l 0.6235,1.0800 h 1.2470 l -0.6235,1.0800 l 0.6235,1.0800 l -1.2470,0.0000 l -0.6235,1.0800 l 0.6235,1.0800 l 1.2470,-0.0000 l -0.6235,1.0800 l 0.6235,1.0800 h 1.2470 l 0.6235,-1.0800 l 0.6235,1.0800 h 1.2470 l 0.6235,-1.0800 l -0.6235,-1.0800 h 1.2470 l 0.6235,-1.0800 l 0.6235,1.0800 l 1.2470,-0.0000 l -0.6235,1.0800 l 0.6235,1.0800 h 1.2470 l 0.6235,-1.0800 l 0.6235,1.0800 h 1.2470 l -0.6235,1.0800 l 0.6235,1.0800 l -1.2470,0.0000 l -0.6235,1.0800 l 0.6235,1.0800 l 1.2470,-0.0000 l -0.6235,1.0800 l 0.6235,1.0800 l -1.2470,0.0000 l -0.6235,1.0800 l -0.6235,-1.0800 l -1.2470,0.0000 l -0.6235,1.0800 l 0.6235,1.0800 l -1.2470,0.0000 l -0.6235,1.0800 l 0.6235,1.0800 l 1.2470,-0.0000 l -0.6235,1.0800 l 0.6235,1.0800 h 1.2470 l 0.6235,-1.0800 l 0.6235,1.0800 h 1.2470 l -0.6235,1.0800 l 0.6235,1.0800 l -1.2470,0.0000 l -0.6235,1.0800 l 0.6235,1.0800 l 1.2470,-0.0000 l -0.6235,1.0800 l 0.6235,1.0800 h 1.2470 l 0.6235,-1.0800 l 0.6235,1.0800 h 1.2470 l 0.6235,-1.0800 l -0.6235,-1.0800 l 1.2470,0.0000 l 0.6235,-1.0800 l 0.6235,1.0800 l 1.2470,-0.0000 l -0.6235,1.0800 l 0.6235,1.0800 h 1.2470 l 0.6235,-1.0800 l 0.6235,1.0800 h 1.2470 l 0.6235,-1.0800 l -0.6235,-1.0800 l 1.2470,0.0000 l 0.6235,-1.0800 l -0.6235,-1.0800 l -1.2470,-0.0000 l 0.6235,-1.0800 l -0.6235,-1.0800 h 1.2470 l 0.6235,-1.0800 l 0.6235,1.0800 h 1.2470 l 0.6235,-1.0800 l -0.6235,-1.0800 l 1.2470,0.0000 l 0.6235,-1.0800 l 0.6235,1.0800 l 1.2470,-0.0000 l -0.6235,1.0800 l 0.6235,1.0800 h 1.2470 l 0.6235,-1.0800 l 0.6235,1.0800 h 1.2470 l -0.6235,1.0800 l 0.6235,1.0800 l -1.2470,0.0000 l -0.6235,1.0800 l 0.6235,1.0800 l 1.2470,-0.0000 l -0.6235,1.0800 l 0.6235,1.0800 h 1.2470 l 0.6235,-1.0800 l 0.6235,1.0800 h 1.2470 l 0.6235,-1.0800 l -0.6235,-1.0800 l 1.2470,0.0000 l 0.6235,-1.0800 l 0.6235,1.0800 l 1.2470,-0.0000 l -0.6235,1.0800 l 0.6235,1.0800 h 1.2470 l 0.6235,-1.0800 l 0.6235,1.0800 h 1.2470 l 0.6235,-1.0800 l -0.6235,-1.0800 l 1.2470,0.0000 l 0.6235,-1.0800 l -0.6235,-1.0800 l -1.2470,-0.0000 l 0.6235,-1.0800 l -0.6235,-1.0800 h 1.2470 l 0.6235,-1.0800 l 0.6235,1.0800 h 1.2470 l 0.6235,-1.0800 l -0.6235,-1.0800 l 1.2470,0.0000 l 0.6235,-1.0800 l -0.6235,-1.0800 l -1.2470,-0.0000 l 0.6235,-1.0800 l -0.6235,-1.0800 l -1.2470,-0.0000 l -0.6235,1.0800 l -0.6235,-1.0800 l -1.2470,-0.0000 l 0.6235,-1.0800 l -0.6235,-1.0800 l 1.2470,-0.0000 l 0.6235,-1.0800 l -0.6235,-1.0800 l -1.2470,-0.0000 l 0.6235,-1.0800 l -0.6235,-1.0800 h 1.2470 l 0.6235,-1.0800 l 0.6235,1.0800 h 1.2470 l 0.6235,-1.0800 l -0.6235,-1.0800 l 1.2470,0.0000 l 0.6235,-1.0800 l 0.6235,1.0800 l 1.2470,-0.0000 l -0.6235,1.0800 l 0.6235,1.0800 h 1.2470 l 0.6235,-1.0800 l 0.6235,1.0800 h 1.2470 l 0.6235,-1.0800 l -0.6235,-1.0800 l 1.2470,0.0000 l 0.6235,-1.0800 l -0.6235,-1.0800 l -1.2470,-0.0000 l 0.6235,-1.0800 l -0.6235,-1.0800 h 1.2470 l 0.6235,-1.0800 l 0.6235,1.0800 h 1.2470 l 0.6235,-1.0800 l -0.6235,-1.0800 l 1.2470,0.0000 l 0.6235,-1.0800 l 0.6235,1.0800 l 1.2470,-0.0000 l -0.6235,1.0800 l 0.6235,1.0800 h 1.2470 l 0.6235,-1.0800 l 0.6235,1.0800 h 1.2470 l -0.6235,1.0800 l 0.6235,1.0800 l -1.2470,0.0000 l -0.6235,1.0800 l 0.6235,1.0800 l 1.2470,-0.0000 l -0.6235,1.0800 l 0.6235,1.0800 h 1.2470 l 0.6235,-1.0800 l 0.6235,1.0800 h 1.2470 l 0.6235,-1.0800 l -0.6235,-1.0800 l 1.2470,0.0000 l 0.6235,-1.0800 l 0.6235,1.0800 l 1.2470,-0.0000 l -0.6235,1.0800 l 0.6235,1.0800 h 1.2470 l 0.6235,-1.0800 l 0.6235,1.0800 h 1.2470 l -0.6235,1.0800 l 0.6235,1.0800 l -1.2470,0.0000 l -0.6235,1.0800 l 0.6235,1.0800 l 1.2470,-0.0000 l -0.6235,1.0800 l 0.6235,1.0800 l -1.2470,0.0000 l -0.6235,1.0800 l -0.6235,-1.0800 l -1.2470,0.0000 l -0.6235,1.0800 l 0.6235,1.0800 l -1.2470,0.0000 l -0.6235,1.0800 l 0.6235,1.0800 l 1.2470,-0.0000 l -0.6235,1.0800 l 0.6235,1.0800 h 1.2470 l 0.6235,-1.0800 l 0.6235,1.0800 h 1.2470 l -0.6235,1.0800 l 0.6235,1.0800 l -1.2470,0.0000 l -0.6235,1.0800 l 0.6235,1.0800 l 1.2470,-0.0000 l -0.6235,1.0800 l 0.6235,1.0800 h 1.2470 l 0.6235,-1.0800 l 0.6235,1.0800 h 1.2470 l 0.6235,-1.0800 l -0.6235,-1.0800 l 1.2470,0.0000 l 0.6235,-1.0800 l 0.6235,1.0800 l 1.2470,-0.0000 l -0.6235,1.0800 l 0.6235,1.0800 h 1.2470 l 0.6235,-1.0800 l 0.6235,1.0800 h 1.2470 l 0.6235,-1.0800 l -0.6235,-1.0800 l 1.2470,0.0000 l 0.6235,-1.0800 l -0.6235,-1.0800 l -1.2470,-0.0000 l 0.6235,-1.0800 l -0.6235,-1.0800 h 1.2470 l 0.6235,-1.0800 l 0.6235,1.0800 h 1.2470 l 0.6235,-1.0800 l -0.6235,-1.0800 l 1.2470,0.0000 l 0.6235,-1.0800 l 0.6235,1.0800 l 1.2470,-0.0000 l -0.6235,1.0800 l 0.6235,1.0800 h 1.2470 l 0.6235,-1.0800 l 0.6235,1.0800 h 1.2470 l -0.6235,1.0800 l 0.6235,1.0800 l -1.2470,0.0000 l -0.6235,1.0800 l 0.6235,1.0800 l 1.2470,-0.0000 l -0.6235,1.0800 l 0.6235,1.0800 h 1.2470 l 0.6235,-1.0800 l 0.6235,1.0800 h 1.2470 l 0.6235,-1.0800 l -0.6235,-1.0800 l 1.2470,0.0000 l 0.6235,-1.0800 l 0.6235,1.0800 l 1.2470,-0.0000 l -0.6235,1.0800 l 0.6235,1.0800 h 1.2470 l 0.6235,-1.0800 l 0.6235,1.0800 h 1.2470 l -0.6235,1.0800 l 0.6235,1.0800 l -1.2470,0.0000 l -0.6235,1.0800 l 0.6235,1.0800 l 1.2470,-0.0000 l -0.6235,1.0800 l 0.6235,1.0800 l -1.2470,0.0000 l -0.6235,1.0800 l -0.6235,-1.0800 l -1.2470,0.0000 l -0.6235,1.0800 l 0.6235,1.0800 l -1.2470,0.0000 l -0.6235,1.0800 l 0.6235,1.0800 l 1.2470,-0.0000 l -0.6235,1.0800 l 0.6235,1.0800 h 1.2470 l 0.6235,-1.0800 l 0.6235,1.0800 h 1.2470 l -0.6235,1.0800 l 0.6235,1.0800 l -1.2470,0.0000 l -0.6235,1.0800 l 0.6235,1.0800 l 1.2470,-0.0000 l -0.6235,1.0800 l 0.6235,1.0800 l -1.2470,0.0000 l -0.6235,1.0800 l -0.6235,-1.0800 l -1.2470,0.0000 l -0.6235,1.0800 l 0.6235,1.0800 l -1.2470,0.0000 l -0.6235,1.0800 l -0.6235,-1.0800 l -1.2470,0.0000 l 0.6235,-1.0800 l -0.6235,-1.0800 l -1.2470,0.0000 l -0.6235,1.0800 l -0.6235,-1.0800 l -1.2470,0.0000 l -0.6235,1.0800 l 0.6235,1.0800 l -1.2470,0.0000 l -0.6235,1.0800 l 0.6235,1.0800 l 1.2470,-0.0000 l -0.6235,1.0800 l 0.6235,1.0800 l -1.2470,0.0000 l -0.6235,1.0800 l -0.6235,-1.0800 l -1.2470,0.0000 l -0.6235,1.0800 l 0.6235,1.0800 l -1.2470,0.0000 l -0.6235,1.0800 l 0.6235,1.0800 h 1.2470 l -0.6235,1.0800 l 0.6235,1.0800 h 1.2470 l 0.6235,-1.0800 l 0.6235,1.0800 h 1.2470 l -0.6235,1.0800 l 0.6235,1.0800 l -1.2470,0.0000 l -0.6235,1.0800 l 0.6235,1.0800 h 1.2470 l -0.6235,1.0800 l 0.6235,1.0800 h 1.2470 l 0.6235,-1.0800 l 0.6235,1.0800 h 1.2470 l 0.6235,-1.0800 l -0.6235,-1.0800 h 1.2470 l 0.6235,-1.0800 l 0.6235,1.0800 h 1.2470 l -0.6235,1.0800 l 0.6235,1.0800 h 1.2470 l 0.6235,-1.0800 l 0.6235,1.0800 h 1.2470 l -0.6235,1.0800 l 0.6235,1.0800 l -1.2470,0.0000 l -0.6235,1.0800 l 0.6235,1.0800 l 1.2470,-0.0000 l -0.6235,1.0800 l 0.6235,1.0800 l -1.2470,0.0000 l -0.6235,1.0800 l -0.6235,-1.0800 l -1.2470,0.0000 l -0.6235,1.0800 l 0.6235,1.0800 l -1.2470,0.0000 l -0.6235,1.0800 l 0.6235,1.0800 h 1.2470 l -0.6235,1.0800 l 0.6235,1.0800 h 1.2470 l 0.6235,-1.0800 l 0.6235,1.0800 h 1.2470 l -0.6235,1.0800 l 0.6235,1.0800 l -1.2470,0.0000 l -0.6235,1.0800 l 0.6235,1.0800 h 1.2470 l -0.6235,1.0800 l 0.6235,1.0800 l -1.2470,0.0000 l -0.6235,1.0800 l -0.6235,-1.0800 l -1.2470,0.0000 l -0.6235,1.0800 l 0.6235,1.0800 l -1.2470,0.0000 l -0.6235,1.0800 l -0.6235,-1.0800 l -1.2470,0.0000 l 0.6235,-1.0800 l -0.6235,-1.0800 l -1.2470,0.0000 l -0.6235,1.0800 l -0.6235,-1.0800 l -1.2470,0.0000 l -0.6235,1.0800 l 0.6235,1.0800 l -1.2470,0.0000 l -0.6235,1.0800 l 0.6235,1.0800 l 1.2470,-0.0000 l -0.6235,1.0800 l 0.6235,1.0800 l -1.2470,0.0000 l -0.6235,1.0800 l -0.6235,-1.0800 l -1.2470,0.0000 l -0.6235,1.0800 l 0.6235,1.0800 l -1.2470,0.0000 l -0.6235,1.0800 l -0.6235,-1.0800 l -1.2470,0.0000 l 0.6235,-1.0800 l -0.6235,-1.0800 l -1.2470,0.0000 l -0.6235,1.0800 l -0.6235,-1.0800 l -1.2470,0.0000 l 0.6235,-1.0800 l -0.6235,-1.0800 l 1.2470,-0.0000 l 0.6235,-1.0800 l -0.6235,-1.0800 l -1.2470,0.0000 l 0.6235,-1.0800 l -0.6235,-1.0800 l -1.2470,0.0000 l -0.6235,1.0800 l -0.6235,-1.0800 l -1.2470,0.0000 l -0.6235,1.0800 l 0.6235,1.0800 l -1.2470,0.0000 l -0.6235,1.0800 l -0.6235,-1.0800 l -1.2470,0.0000 l 0.6235,-1.0800 l -0.6235,-1.0800 l -1.2470,0.0000 l -0.6235,1.0800 l -0.6235,-1.0800 l -1.2470,0.0000 l -0.6235,1.0800 l 0.6235,1.0800 l -1.2470,0.0000 l -0.6235,1.0800 l 0.6235,1.0800 l 1.2470,-0.0000 l -0.6235,1.0800 l 0.6235,1.0800 l -1.2470,0.0000 l -0.6235,1.0800 l -0.6235,-1.0800 l -1.2470,0.0000 l -0.6235,1.0800 l 0.6235,1.0800 l -1.2470,0.0000 l -0.6235,1.0800 l 0.6235,1.0800 l 1.2470,-0.0000 l -0.6235,1.0800 l 0.6235,1.0800 h 1.2470 l 0.6235,-1.0800 l 0.6235,1.0800 h 1.2470 l -0.6235,1.0800 l 0.6235,1.0800 l -1.2470,0.0000 l -0.6235,1.0800 l 0.6235,1.0800 l 1.2470,-0.0000 l -0.6235,1.0800 l 0.6235,1.0800 l -1.2470,0.0000 l -0.6235,1.0800 l -0.6235,-1.0800 l -1.2470,0.0000 l -0.6235,1.0800 l 0.6235,1.0800 l -1.2470,0.0000 l -0.6235,1.0800 l -0.6235,-1.0800 l -1.2470,0.0000 l 0.6235,-1.0800 l -0.6235,-1.0800 l -1.2470,0.0000 l -0.6235,1.0800 l -0.6235,-1.0800 l -1.2470,0.0000 l -0.6235,1.0800 l 0.6235,1.0800 l -1.2470,0.0000 l -0.6235,1.0800 l 0.6235,1.0800 l 1.2470,-0.0000 l -0.6235,1.0800 l 0.6235,1.0800 l -1.2470,0.0000 l -0.6235,1.0800 l -0.6235,-1.0800 l -1.2470,0.0000 l -0.6235,1.0800 l 0.6235,1.0800 l -1.2470,0.0000 l -0.6235,1.0800 l 0.6235,1.0800 l 1.2470,-0.0000 l -0.6235,1.0800 l 0.6235,1.0800 h 1.2470 l 0.6235,-1.0800 l 0.6235,1.0800 h 1.2470 l -0.6235,1.0800 l 0.6235,1.0800 l -1.2470,0.0000 l -0.6235,1.0800 l 0.6235,1.0800 l 1.2470,-0.0000 l -0.6235,1.0800 l 0.6235,1.0800 h 1.2470 l 0.6235,-1.0800 l 0.6235,1.0800 h 1.2470 l 0.6235,-1.0800 l -0.6235,-1.0800 h 1.2470 l 0.6235,-1.0800 l 0.6235,1.0800 l 1.2470,-0.0000 l -0.6235,1.0800 l 0.6235,1.0800 h 1.2470 l 0.6235,-1.0800 l 0.6235,1.0800 h 1.2470 l -0.6235,1.0800 l 0.6235,1.0800 l -1.2470,0.0000 l -0.6235,1.0800 l 0.6235,1.0800 l 1.2470,-0.0000 l -0.6235,1.0800 l 0.6235,1.0800 l -1.2470,0.0000 l -0.6235,1.0800 l -0.6235,-1.0800 l -1.2470,0.0000 l -0.6235,1.0800 l 0.6235,1.0800 l -1.2470,0.0000 l -0.6235,1.0800 l 0.6235,1.0800 l 1.2470,-0.0000 l -0.6235,1.0800 l 0.6235,1.0800 h 1.2470 l 0.6235,-1.0800 l 0.6235,1.0800 h 1.2470 l -0.6235,1.0800 l 0.6235,1.0800 l -1.2470,0.0000 l -0.6235,1.0800 l 0.6235,1.0800 l 1.2470,-0.0000 l -0.6235,1.0800 l 0.6235,1.0800 h 1.2470 l 0.6235,-1.0800 l 0.6235,1.0800 h 1.2470 l 0.6235,-1.0800 l -0.6235,-1.0800 l 1.2470,0.0000 l 0.6235,-1.0800 l 0.6235,1.0800 h 1.2470 l -0.6235,1.0800 l 0.6235,1.0800 h 1.2470 l 0.6235,-1.0800 l 0.6235,1.0800 h 1.2470 l 0.6235,-1.0800 l -0.6235,-1.0800 l 1.2470,0.0000 l 0.6235,-1.0800 l -0.6235,-1.0800 l -1.2470,-0.0000 l 0.6235,-1.0800 l -0.6235,-1.0800 h 1.2470 l 0.6235,-1.0800 l 0.6235,1.0800 h 1.2470 l 0.6235,-1.0800 l -0.6235,-1.0800 l 1.2470,0.0000 l 0.6235,-1.0800 l 0.6235,1.0800 h 1.2470 l -0.6235,1.0800 l 0.6235,1.0800 h 1.2470 l 0.6235,-1.0800 l 0.6235,1.0800 h 1.2470 l -0.6235,1.0800 l 0.6235,1.0800 l -1.2470,0.0000 l -0.6235,1.0800 l 0.6235,1.0800 h 1.2470 l -0.6235,1.0800 l 0.6235,1.0800 h 1.2470 l 0.6235,-1.0800 l 0.6235,1.0800 h 1.2470 l 0.6235,-1.0800 l -0.6235,-1.0800 l 1.2470,0.0000 l 0.6235,-1.0800 l 0.6235,1.0800 h 1.2470 l -0.6235,1.0800 l 0.6235,1.0800 h 1.2470 l 0.6235,-1.0800 l 0.6235,1.0800 h 1.2470 l -0.6235,1.0800 l 0.6235,1.0800 l -1.2470,0.0000 l -0.6235,1.0800 l 0.6235,1.0800 l 1.2470,-0.0000 l -0.6235,1.0800 l 0.6235,1.0800 l -1.2470,0.0000 l -0.6235,1.0800 l -0.6235,-1.0800 l -1.2470,0.0000 l -0.6235,1.0800 l 0.6235,1.0800 l -1.2470,0.0000 l -0.6235,1.0800 l 0.6235,1.0800 l 1.2470,-0.0000 l -0.6235,1.0800 l 0.6235,1.0800 l 1.2470,-0.0000 l 0.6235,-1.0800 l 0.6235,1.0800 l 1.2470,-0.0000 l -0.6235,1.0800 l 0.6235,1.0800 l -1.2470,0.0000 l -0.6235,1.0800 l 0.6235,1.0800 l 1.2470,-0.0000 l -0.6235,1.0800 l 0.6235,1.0800 l -1.2470,0.0000 l -0.6235,1.0800 l -0.6235,-1.0800 l -1.2470,0.0000 l -0.6235,1.0800 l 0.6235,1.0800 l -1.2470,0.0000 l -0.6235,1.0800 l -0.6235,-1.0800 l -1.2470,0.0000 l 0.6235,-1.0800 l -0.6235,-1.0800 l -1.2470,0.0000 l -0.6235,1.0800 l -0.6235,-1.0800 l -1.2470,0.0000 l -0.6235,1.0800 l 0.6235,1.0800 l -1.2470,0.0000 l -0.6235,1.0800 l 0.6235,1.0800 l 1.2470,-0.0000 l -0.6235,1.0800 l 0.6235,1.0800 l -1.2470,0.0000 l -0.6235,1.0800 l -0.6235,-1.0800 l -1.2470,0.0000 l -0.6235,1.0800 l 0.6235,1.0800 l -1.2470,0.0000 l -0.6235,1.0800 l 0.6235,1.0800 l 1.2470,-0.0000 l -0.6235,1.0800 l 0.6235,1.0800 h 1.2470 l 0.6235,-1.0800 l 0.6235,1.0800 h 1.2470 l -0.6235,1.0800 l 0.6235,1.0800 l -1.2470,0.0000 l -0.6235,1.0800 l 0.6235,1.0800 l 1.2470,-0.0000 l -0.6235,1.0800 l 0.6235,1.0800 h 1.2470 l 0.6235,-1.0800 l 0.6235,1.0800 h 1.2470 l 0.6235,-1.0800 l -0.6235,-1.0800 h 1.2470 l 0.6235,-1.0800 l 0.6235,1.0800 l 1.2470,-0.0000 l -0.6235,1.0800 l 0.6235,1.0800 h 1.2470 l 0.6235,-1.0800 l 0.6235,1.0800 h 1.2470 l -0.6235,1.0800 l 0.6235,1.0800 l -1.2470,0.0000 l -0.6235,1.0800 l 0.6235,1.0800 l 1.2470,-0.0000 l -0.6235,1.0800 l 0.6235,1.0800 l -1.2470,0.0000 l -0.6235,1.0800 l -0.6235,-1.0800 l -1.2470,0.0000 l -0.6235,1.0800 l 0.6235,1.0800 l -1.2470,0.0000 l -0.6235,1.0800 l 0.6235,1.0800 l 1.2470,-0.0000 l -0.6235,1.0800 l 0.6235,1.0800 h 1.2470 l 0.6235,-1.0800 l 0.6235,1.0800 h 1.2470 l -0.6235,1.0800 l 0.6235,1.0800 l -1.2470,0.0000 l -0.6235,1.0800 l 0.6235,1.0800 l 1.2470,-0.0000 l -0.6235,1.0800 l 0.6235,1.0800 l -1.2470,-0.0000 l -0.6235,1.0800 l -0.6235,-1.0800 l -1.2470,-0.0000 l -0.6235,1.0800 l 0.6235,1.0800 l -1.2470,-0.0000 l -0.6235,1.0800 l -0.6235,-1.0800 l -1.2470,-0.0000 l 0.6235,-1.0800 l -0.6235,-1.0800 l -1.2470,-0.0000 l -0.6235,1.0800 l -0.6235,-1.0800 l -1.2470,-0.0000 l -0.6235,1.0800 l 0.6235,1.0800 l -1.2470,-0.0000 l -0.6235,1.0800 l 0.6235,1.0800 l 1.2470,0.0000 l -0.6235,1.0800 l 0.6235,1.0800 l -1.2470,-0.0000 l -0.6235,1.0800 l -0.6235,-1.0800 l -1.2470,-0.0000 l -0.6235,1.0800 l 0.6235,1.0800 l -1.2470,-0.0000 l -0.6235,1.0800 l -0.6235,-1.0800 l -1.2470,-0.0000 l 0.6235,-1.0800 l -0.6235,-1.0800 l -1.2470,-0.0000 l -0.6235,1.0800 l -0.6235,-1.0800 l -1.2470,-0.0000 l 0.6235,-1.0800 l -0.6235,-1.0800 l 1.2470,-0.0000 l 0.6235,-1.0800 l -0.6235,-1.0800 l -1.2470,-0.0000 l 0.6235,-1.0800 l -0.6235,-1.0800 l -1.2470,-0.0000 l -0.6235,1.0800 l -0.6235,-1.0800 l -1.2470,-0.0000 l -0.6235,1.0800 l 0.6235,1.0800 l -1.2470,-0.0000 l -0.6235,1.0800 l -0.6235,-1.0800 l -1.2470,-0.0000 l 0.6235,-1.0800 l -0.6235,-1.0800 l -1.2470,-0.0000 l -0.6235,1.0800 l -0.6235,-1.0800 l -1.2470,-0.0000 l -0.6235,1.0800 l 0.6235,1.0800 l -1.2470,-0.0000 l -0.6235,1.0800 l 0.6235,1.0800 l 1.2470,0.0000 l -0.6235,1.0800 l 0.6235,1.0800 l -1.2470,-0.0000 l -0.6235,1.0800 l -0.6235,-1.0800 l -1.2470,-0.0000 l -0.6235,1.0800 l 0.6235,1.0800 l -1.2470,-0.0000 l -0.6235,1.0800 l 0.6235,1.0800 l 1.2470,0.0000 l -0.6235,1.0800 l 0.6235,1.0800 l 1.2470,0.0000 l 0.6235,-1.0800 l 0.6235,1.0800 l 1.2470,0.0000 l -0.6235,1.0800 l 0.6235,1.0800 l -1.2470,-0.0000 l -0.6235,1.0800 l 0.6235,1.0800 l 1.2470,0.0000 l -0.6235,1.0800 l 0.6235,1.0800 l -1.2470,-0.0000 l -0.6235,1.0800 l -0.6235,-1.0800 l -1.2470,-0.0000 l -0.6235,1.0800 l 0.6235,1.0800 l -1.2470,-0.0000 l -0.6235,1.0800 l -0.6235,-1.0800 l -1.2470,-0.0000 l 0.6235,-1.0800 l -0.6235,-1.0800 l -1.2470,-0.0000 l -0.6235,1.0800 l -0.6235,-1.0800 l -1.2470,-0.0000 l -0.6235,1.0800 l 0.6235,1.0800 l -1.2470,-0.0000 l -0.6235,1.0800 l 0.6235,1.0800 l 1.2470,0.0000 l -0.6235,1.0800 l 0.6235,1.0800 l -1.2470,-0.0000 l -0.6235,1.0800 l -0.6235,-1.0800 l -1.2470,-0.0000 l -0.6235,1.0800 l 0.6235,1.0800 l -1.2470,-0.0000 l -0.6235,1.0800 l -0.6235,-1.0800 l -1.2470,-0.0000 l 0.6235,-1.0800 l -0.6235,-1.0800 l -1.2470,-0.0000 l -0.6235,1.0800 l -0.6235,-1.0800 l -1.2470,-0.0000 l 0.6235,-1.0800 l -0.6235,-1.0800 l 1.2470,-0.0000 l 0.6235,-1.0800 l -0.6235,-1.0800 l -1.2470,-0.0000 l 0.6235,-1.0800 l -0.6235,-1.0800 l -1.2470,-0.0000 l -0.6235,1.0800 l -0.6235,-1.0800 l -1.2470,-0.0000 l -0.6235,1.0800 l 0.6235,1.0800 l -1.2470,-0.0000 l -0.6235,1.0800 l -0.6235,-1.0800 l -1.2470,-0.0000 l 0.6235,-1.0800 l -0.6235,-1.0800 l -1.2470,-0.0000 l -0.6235,1.0800 l -0.6235,-1.0800 l -1.2470,-0.0000 l 0.6235,-1.0800 l -0.6235,-1.0800 l 1.2470,-0.0000 l 0.6235,-1.0800 l -0.6235,-1.0800 l -1.2470,-0.0000 l 0.6235,-1.0800 l -0.6235,-1.0800 l 1.2470,-0.0000 l 0.6235,-1.0800 l 0.6235,1.0800 l 1.2470,-0.0000 l 0.6235,-1.0800 l -0.6235,-1.0800 l 1.2470,-0.0000 l 0.6235,-1.0800 l -0.6235,-1.0800 l -1.2470,-0.0000 l 0.6235,-1.0800 l -0.6235,-1.0800 l -1.2470,-0.0000 l -0.6235,1.0800 l -0.6235,-1.0800 l -1.2470,-0.0000 l 0.6235,-1.0800 l -0.6235,-1.0800 l 1.2470,-0.0000 l 0.6235,-1.0800 l -0.6235,-1.0800 l -1.2470,-0.0000 l 0.6235,-1.0800 l -0.6235,-1.0800 l -1.2470,-0.0000 l -0.6235,1.0800 l -0.6235,-1.0800 l -1.2470,-0.0000 l -0.6235,1.0800 l 0.6235,1.0800 l -1.2470,-0.0000 l -0.6235,1.0800 l -0.6235,-1.0800 l -1.2470,-0.0000 l 0.6235,-1.0800 l -0.6235,-1.0800 l -1.2470,-0.0000 l -0.6235,1.0800 l -0.6235,-1.0800 l -1.2470,-0.0000 l -0.6235,1.0800 l 0.6235,1.0800 l -1.2470,-0.0000 l -0.6235,1.0800 l 0.6235,1.0800 l 1.2470,0.0000 l -0.6235,1.0800 l 0.6235,1.0800 l -1.2470,-0.0000 l -0.6235,1.0800 l -0.6235,-1.0800 l -1.2470,-0.0000 l -0.6235,1.0800 l 0.6235,1.0800 l -1.2470,-0.0000 l -0.6235,1.0800 l -0.6235,-1.0800 l -1.2470,-0.0000 l 0.6235,-1.0800 l -0.6235,-1.0800 l -1.2470,-0.0000 l -0.6235,1.0800 l -0.6235,-1.0800 l -1.2470,-0.0000 l 0.6235,-1.0800 l -0.6235,-1.0800 l 1.2470,-0.0000 l 0.6235,-1.0800 l -0.6235,-1.0800 l -1.2470,-0.0000 l 0.6235,-1.0800 l -0.6235,-1.0800 l -1.2470,-0.0000 l -0.6235,1.0800 l -0.6235,-1.0800 l -1.2470,-0.0000 l -0.6235,1.0800 l 0.6235,1.0800 l -1.2470,-0.0000 l -0.6235,1.0800 l -0.6235,-1.0800 l -1.2470,-0.0000 l 0.6235,-1.0800 l -0.6235,-1.0800 l -1.2470,-0.0000 l -0.6235,1.0800 l -0.6235,-1.0800 l -1.2470,-0.0000 l -0.6235,1.0800 l 0.6235,1.0800 l -1.2470,-0.0000 l -0.6235,1.0800 l 0.6235,1.0800 l 1.2470,0.0000 l -0.6235,1.0800 l 0.6235,1.0800 l -1.2470,-0.0000 l -0.6235,1.0800 l -0.6235,-1.0800 l -1.2470,-0.0000 l -0.6235,1.0800 l 0.6235,1.0800 l -1.2470,-0.0000 l -0.6235,1.0800 l 0.6235,1.0800 l 1.2470,0.0000 l -0.6235,1.0800 l 0.6235,1.0800 l 1.2470,0.0000 l 0.6235,-1.0800 l 0.6235,1.0800 l 1.2470,0.0000 l -0.6235,1.0800 l 0.6235,1.0800 l -1.2470,-0.0000 l -0.6235,1.0800 l 0.6235,1.0800 l 1.2470,0.0000 l -0.6235,1.0800 l 0.6235,1.0800 l -1.2470,-0.0000 l -0.6235,1.0800 l -0.6235,-1.0800 l -1.2470,-0.0000 l -0.6235,1.0800 l 0.6235,1.0800 l -1.2470,-0.0000 l -0.6235,1.0800 l -0.6235,-1.0800 l -1.2470,-0.0000 l 0.6235,-1.0800 l -0.6235,-1.0800 l -1.2470,-0.0000 l -0.6235,1.0800 l -0.6235,-1.0800 l -1.2470,-0.0000 l -0.6235,1.0800 l 0.6235,1.0800 l -1.2470,-0.0000 l -0.6235,1.0800 l 0.6235,1.0800 l 1.2470,0.0000 l -0.6235,1.0800 l 0.6235,1.0800 l -1.2470,-0.0000 l -0.6235,1.0800 l -0.6235,-1.0800 l -1.2470,-0.0000 l -0.6235,1.0800 l 0.6235,1.0800 l -1.2470,-0.0000 l -0.6235,1.0800 l 0.6235,1.0800 l 1.2470,0.0000 l -0.6235,1.0800 l 0.6235,1.0800 l 1.2470,0.0000 l 0.6235,-1.0800 l 0.6235,1.0800 l 1.2470,0.0000 l -0.6235,1.0800 l 0.6235,1.0800 l -1.2470,-0.0000 l -0.6235,1.0800 l 0.6235,1.0800 l 1.2470,0.0000 l -0.6235,1.0800 l 0.6235,1.0800 l 1.2470,0.0000 l 0.6235,-1.0800 l 0.6235,1.0800 l 1.2470,0.0000 l 0.6235,-1.0800 l -0.6235,-1.0800 l 1.2470,0.0000 l 0.6235,-1.0800 l 0.6235,1.0800 l 1.2470,0.0000 l -0.6235,1.0800 l 0.6235,1.0800 l 1.2470,0.0000 l 0.6235,-1.0800 l 0.6235,1.0800 l 1.2470,0.0000 l -0.6235,1.0800 l 0.6235,1.0800 l -1.2470,-0.0000 l -0.6235,1.0800 l 0.6235,1.0800 l 1.2470,0.0000 l -0.6235,1.0800 l 0.6235,1.0800 l -1.2470,-0.0000 l -0.6235,1.0800 l -0.6235,-1.0800 l -1.2470,-0.0000 l -0.6235,1.0800 l 0.6235,1.0800 l -1.2470,-0.0000 l -0.6235,1.0800 l 0.6235,1.0800 l 1.2470,0.0000 l -0.6235,1.0800 l 0.6235,1.0800 l 1.2470,0.0000 l 0.6235,-1.0800 l 0.6235,1.0800 l 1.2470,0.0000 l -0.6235,1.0800 l 0.6235,1.0800 l -1.2470,-0.0000 l -0.6235,1.0800 l 0.6235,1.0800 l 1.2470,0.0000 l -0.6235,1.0800 l 0.6235,1.0800 l -1.2470,-0.0000 l -0.6235,1.0800 l -0.6235,-1.0800 l -1.2470,-0.0000 l -0.6235,1.0800 l 0.6235,1.0800 l -1.2470,-0.0000 l -0.6235,1.0800 l -0.6235,-1.0800 l -1.2470,-0.0000 l 0.6235,-1.0800 l -0.6235,-1.0800 l -1.2470,-0.0000 l -0.6235,1.0800 l -0.6235,-1.0800 l -1.2470,-0.0000 l -0.6235,1.0800 l 0.6235,1.0800 l -1.2470,-0.0000 l -0.6235,1.0800 l 0.6235,1.0800 l 1.2470,0.0000 l -0.6235,1.0800 l 0.6235,1.0800 l -1.2470,-0.0000 l -0.6235,1.0800 l -0.6235,-1.0800 l -1.2470,-0.0000 l -0.6235,1.0800 l 0.6235,1.0800 l -1.2470,-0.0000 l -0.6235,1.0800 l -0.6235,-1.0800 l -1.2470,-0.0000 l 0.6235,-1.0800 l -0.6235,-1.0800 l -1.2470,-0.0000 l -0.6235,1.0800 l -0.6235,-1.0800 l -1.2470,-0.0000 l 0.6235,-1.0800 l -0.6235,-1.0800 l 1.2470,-0.0000 l 0.6235,-1.0800 l -0.6235,-1.0800 l -1.2470,-0.0000 l 0.6235,-1.0800 l -0.6235,-1.0800 l -1.2470,-0.0000 l -0.6235,1.0800 l -0.6235,-1.0800 l -1.2470,-0.0000 l -0.6235,1.0800 l 0.6235,1.0800 l -1.2470,-0.0000 l -0.6235,1.0800 l -0.6235,-1.0800 l -1.2470,-0.0000 l 0.6235,-1.0800 l -0.6235,-1.0800 l -1.2470,-0.0000 l -0.6235,1.0800 l -0.6235,-1.0800 l -1.2470,-0.0000 l -0.6235,1.0800 l 0.6235,1.0800 l -1.2470,-0.0000 l -0.6235,1.0800 l 0.6235,1.0800 l 1.2470,0.0000 l -0.6235,1.0800 l 0.6235,1.0800 l -1.2470,-0.0000 l -0.6235,1.0800 l -0.6235,-1.0800 l -1.2470,-0.0000 l -0.6235,1.0800 l 0.6235,1.0800 l -1.2470,-0.0000 l -0.6235,1.0800 l 0.6235,1.0800 l 1.2470,0.0000 l -0.6235,1.0800 l 0.6235,1.0800 l 1.2470,0.0000 l 0.6235,-1.0800 l 0.6235,1.0800 l 1.2470,0.0000 l -0.6235,1.0800 l 0.6235,1.0800 l -1.2470,-0.0000 l -0.6235,1.0800 l 0.6235,1.0800 l 1.2470,0.0000 l -0.6235,1.0800 l 0.6235,1.0800 l -1.2470,-0.0000 l -0.6235,1.0800 l -0.6235,-1.0800 l -1.2470,-0.0000 l -0.6235,1.0800 l 0.6235,1.0800 l -1.2470,-0.0000 l -0.6235,1.0800 l -0.6235,-1.0800 l -1.2470,-0.0000 l 0.6235,-1.0800 l -0.6235,-1.0800 l -1.2470,-0.0000 l -0.6235,1.0800 l -0.6235,-1.0800 l -1.2470,-0.0000 l -0.6235,1.0800 l 0.6235,1.0800 l -1.2470,-0.0000 l -0.6235,1.0800 l 0.6235,1.0800 l 1.2470,0.0000 l -0.6235,1.0800 l 0.6235,1.0800 l -1.2470,-0.0000 l -0.6235,1.0800 l -0.6235,-1.0800 l -1.2470,-0.0000 l -0.6235,1.0800 l 0.6235,1.0800 l -1.2470,-0.0000 l -0.6235,1.0800 l -0.6235,-1.0800 l -1.2470,-0.0000 l 0.6235,-1.0800 l -0.6235,-1.0800 l -1.2470,-0.0000 l -0.6235,1.0800 l -0.6235,-1.0800 l -1.2470,-0.0000 l 0.6235,-1.0800 l -0.6235,-1.0800 l 1.2470,-0.0000 l 0.6235,-1.0800 l -0.6235,-1.0800 l -1.2470,-0.0000 l 0.6235,-1.0800 l -0.6235,-1.0800 l -1.2470,-0.0000 l -0.6235,1.0800 l -0.6235,-1.0800 l -1.2470,-0.0000 l -0.6235,1.0800 l 0.6235,1.0800 l -1.2470,-0.0000 l -0.6235,1.0800 l -0.6235,-1.0800 l -1.2470,-0.0000 l 0.6235,-1.0800 l -0.6235,-1.0800 l -1.2470,-0.0000 l -0.6235,1.0800 l -0.6235,-1.0800 l -1.2470,-0.0000 l 0.6235,-1.0800 l -0.6235,-1.0800 l 1.2470,-0.0000 l 0.6235,-1.0800 l -0.6235,-1.0800 l -1.2470,-0.0000 l 0.6235,-1.0800 l -0.6235,-1.0800 l 1.2470,-0.0000 l 0.6235,-1.0800 l 0.6235,1.0800 l 1.2470,-0.0000 l 0.6235,-1.0800 l -0.6235,-1.0800 l 1.2470,-0.0000 l 0.6235,-1.0800 l -0.6235,-1.0800 l -1.2470,-0.0000 l 0.6235,-1.0800 l -0.6235,-1.0800 l -1.2470,-0.0000 l -0.6235,1.0800 l -0.6235,-1.0800 l -1.2470,-0.0000 l 0.6235,-1.0800 l -0.6235,-1.0800 l 1.2470,-0.0000 l 0.6235,-1.0800 l -0.6235,-1.0800 l -1.2470,-0.0000 l 0.6235,-1.0800 l -0.6235,-1.0800 l -1.2470,-0.0000 l -0.6235,1.0800 l -0.6235,-1.0800 l -1.2470,-0.0000 l -0.6235,1.0800 l 0.6235,1.0800 l -1.2470,-0.0000 l -0.6235,1.0800 l -0.6235,-1.0800 l -1.2470,-0.0000 l 0.6235,-1.0800 l -0.6235,-1.0800 l -1.2470,-0.0000 l -0.6235,1.0800 l -0.6235,-1.0800 l -1.2470,-0.0000 l -0.6235,1.0800 l 0.6235,1.0800 l -1.2470,-0.0000 l -0.6235,1.0800 l 0.6235,1.0800 l 1.2470,0.0000 l -0.6235,1.0800 l 0.6235,1.0800 l -1.2470,-0.0000 l -0.6235,1.0800 l -0.6235,-1.0800 l -1.2470,-0.0000 l -0.6235,1.0800 l 0.6235,1.0800 l -1.2470,-0.0000 l -0.6235,1.0800 l -0.6235,-1.0800 l -1.2470,-0.0000 l 0.6235,-1.0800 l -0.6235,-1.0800 l -1.2470,-0.0000 l -0.6235,1.0800 l -0.6235,-1.0800 l -1.2470,-0.0000 l 0.6235,-1.0800 l -0.6235,-1.0800 l 1.2470,-0.0000 l 0.6235,-1.0800 l -0.6235,-1.0800 l -1.2470,-0.0000 l 0.6235,-1.0800 l -0.6235,-1.0800 l -1.2470,-0.0000 l -0.6235,1.0800 l -0.6235,-1.0800 l -1.2470,-0.0000 l -0.6235,1.0800 l 0.6235,1.0800 l -1.2470,-0.0000 l -0.6235,1.0800 l -0.6235,-1.0800 l -1.2470,-0.0000 l 0.6235,-1.0800 l -0.6235,-1.0800 l -1.2470,-0.0000 l -0.6235,1.0800 l -0.6235,-1.0800 l -1.2470,-0.0000 l 0.6235,-1.0800 l -0.6235,-1.0800 l 1.2470,-0.0000 l 0.6235,-1.0800 l -0.6235,-1.0800 l -1.2470,-0.0000 l 0.6235,-1.0800 l -0.6235,-1.0800 l 1.2470,-0.0000 l 0.6235,-1.0800 l 0.6235,1.0800 l 1.2470,-0.0000 l 0.6235,-1.0800 l -0.6235,-1.0800 l 1.2470,-0.0000 l 0.6235,-1.0800 l -0.6235,-1.0800 l -1.2470,-0.0000 l 0.6235,-1.0800 l -0.6235,-1.0800 l -1.2470,-0.0000 l -0.6235,1.0800 l -0.6235,-1.0800 l -1.2470,-0.0000 l 0.6235,-1.0800 l -0.6235,-1.0800 l 1.2470,-0.0000 l 0.6235,-1.0800 l -0.6235,-1.0800 l -1.2470,-0.0000 l 0.6235,-1.0800 l -0.6235,-1.0800 l 1.2470,-0.0000 l 0.6235,-1.0800 l 0.6235,1.0800 l 1.2470,-0.0000 l 0.6235,-1.0800 l -0.6235,-1.0800 l 1.2470,-0.0000 l 0.6235,-1.0800 l 0.6235,1.0800 l 1.2470,-0.0000 l -0.6235,1.0800 l 0.6235,1.0800 l 1.2470,-0.0000 l 0.6235,-1.0800 l 0.6235,1.0800 l 1.2470,-0.0000 l 0.6235,-1.0800 l -0.6235,-1.0800 l 1.2470,-0.0000 l 0.6235,-1.0800 l -0.6235,-1.0800 l -1.2470,-0.0000 l 0.6235,-1.0800 l -0.6235,-1.0800 l 1.2470,-0.0000 l 0.6235,-1.0800 l 0.6235,1.0800 l 1.2470,-0.0000 l 0.6235,-1.0800 l -0.6235,-1.0800 l 1.2470,-0.0000 l 0.6235,-1.0800 l -0.6235,-1.0800 l -1.2470,-0.0000 l 0.6235,-1.0800 l -0.6235,-1.0800 l -1.2470,-0.0000 l -0.6235,1.0800 l -0.6235,-1.0800 l -1.2470,-0.0000 l 0.6235,-1.0800 l -0.6235,-1.0800 l 1.2470,-0.0000 l 0.6235,-1.0800 l -0.6235,-1.0800 l -1.2470,-0.0000 l 0.6235,-1.0800 l -0.6235,-1.0800 l -1.2470,-0.0000 l -0.6235,1.0800 l -0.6235,-1.0800 l -1.2470,-0.0000 l -0.6235,1.0800 l 0.6235,1.0800 l -1.2470,-0.0000 l -0.6235,1.0800 l -0.6235,-1.0800 l -1.2470,-0.0000 l 0.6235,-1.0800 l -0.6235,-1.0800 l -1.2470,-0.0000 l -0.6235,1.0800 l -0.6235,-1.0800 l -1.2470,-0.0000 l 0.6235,-1.0800 l -0.6235,-1.0800 l 1.2470,-0.0000 l 0.6235,-1.0800 l -0.6235,-1.0800 l -1.2470,-0.0000 l 0.6235,-1.0800 l -0.6235,-1.0800 l 1.2470,-0.0000 l 0.6235,-1.0800 l 0.6235,1.0800 l 1.2470,-0.0000 l 0.6235,-1.0800 l -0.6235,-1.0800 l 1.2470,-0.0000 l 0.6235,-1.0800 l -0.6235,-1.0800 l -1.2470,-0.0000 l 0.6235,-1.0800 l -0.6235,-1.0800 l -1.2470,-0.0000 l -0.6235,1.0800 l -0.6235,-1.0800 l -1.2470,-0.0000 l 0.6235,-1.0800 l -0.6235,-1.0800 l 1.2470,-0.0000 l 0.6235,-1.0800 l -0.6235,-1.0800 l -1.2470,-0.0000 l 0.6235,-1.0800 l -0.6235,-1.0800 l -1.2470,-0.0000 l -0.6235,1.0800 l -0.6235,-1.0800 l -1.2470,-0.0000 l -0.6235,1.0800 l 0.6235,1.0800 l -1.2470,-0.0000 l -0.6235,1.0800 l -0.6235,-1.0800 l -1.2470,-0.0000 l 0.6235,-1.0800 l -0.6235,-1.0800 l -1.2470,-0.0000 l -0.6235,1.0800 l -0.6235,-1.0800 l -1.2470,-0.0000 l -0.6235,1.0800 l 0.6235,1.0800 l -1.2470,-0.0000 l -0.6235,1.0800 l 0.6235,1.0800 l 1.2470,0.0000 l -0.6235,1.0800 l 0.6235,1.0800 l -1.2470,-0.0000 l -0.6235,1.0800 l -0.6235,-1.0800 l -1.2470,-0.0000 l -0.6235,1.0800 l 0.6235,1.0800 l -1.2470,-0.0000 l -0.6235,1.0800 l -0.6235,-1.0800 l -1.2470,-0.0000 l 0.6235,-1.0800 l -0.6235,-1.0800 l -1.2470,-0.0000 l -0.6235,1.0800 l -0.6235,-1.0800 l -1.2470,-0.0000 l 0.6235,-1.0800 l -0.6235,-1.0800 l 1.2470,-0.0000 l 0.6235,-1.0800 l -0.6235,-1.0800 l -1.2470,-0.0000 l 0.6235,-1.0800 l -0.6235,-1.0800 l -1.2470,-0.0000 l -0.6235,1.0800 l -0.6235,-1.0800 l -1.2470,-0.0000 l -0.6235,1.0800 l 0.6235,1.0800 l -1.2470,-0.0000 l -0.6235,1.0800 l -0.6235,-1.0800 l -1.2470,-0.0000 l 0.6235,-1.0800 l -0.6235,-1.0800 l -1.2470,-0.0000 l -0.6235,1.0800 l -0.6235,-1.0800 l -1.2470,-0.0000 l -0.6235,1.0800 l 0.6235,1.0800 l -1.2470,-0.0000 l -0.6235,1.0800 l 0.6235,1.0800 l 1.2470,0.0000 l -0.6235,1.0800 l 0.6235,1.0800 l -1.2470,-0.0000 l -0.6235,1.0800 l -0.6235,-1.0800 l -1.2470,-0.0000 l -0.6235,1.0800 l 0.6235,1.0800 l -1.2470,-0.0000 l -0.6235,1.0800 l 0.6235,1.0800 l 1.2470,0.0000 l -0.6235,1.0800 l 0.6235,1.0800 l 1.2470,0.0000 l 0.6235,-1.0800 l 0.6235,1.0800 l 1.2470,0.0000 l -0.6235,1.0800 l 0.6235,1.0800 l -1.2470,-0.0000 l -0.6235,1.0800 l 0.6235,1.0800 l 1.2470,0.0000 l -0.6235,1.0800 l 0.6235,1.0800 l -1.2470,-0.0000 l -0.6235,1.0800 l -0.6235,-1.0800 l -1.2470,-0.0000 l -0.6235,1.0800 l 0.6235,1.0800 l -1.2470,-0.0000 l -0.6235,1.0800 l -0.6235,-1.0800 l -1.2470,-0.0000 l 0.6235,-1.0800 l -0.6235,-1.0800 l -1.2470,-0.0000 l -0.6235,1.0800 l -0.6235,-1.0800 l -1.2470,-0.0000 l -0.6235,1.0800 l 0.6235,1.0800 l -1.2470,-0.0000 l -0.6235,1.0800 l 0.6235,1.0800 l 1.2470,0.0000 l -0.6235,1.0800 l 0.6235,1.0800 l -1.2470,-0.0000 l -0.6235,1.0800 l -0.6235,-1.0800 l -1.2470,-0.0000 l -0.6235,1.0800 l 0.6235,1.0800 l -1.2470,-0.0000 l -0.6235,1.0800 l -0.6235,-1.0800 l -1.2470,-0.0000 l 0.6235,-1.0800 l -0.6235,-1.0800 l -1.2470,-0.0000 l -0.6235,1.0800 l -0.6235,-1.0800 l -1.2470,-0.0000 l 0.6235,-1.0800 l -0.6235,-1.0800 l 1.2470,-0.0000 l 0.6235,-1.0800 l -0.6235,-1.0800 l -1.2470,-0.0000 l 0.6235,-1.0800 l -0.6235,-1.0800 l -1.2470,-0.0000 l -0.6235,1.0800 l -0.6235,-1.0800 l -1.2470,-0.0000 l -0.6235,1.0800 l 0.6235,1.0800 l -1.2470,-0.0000 l -0.6235,1.0800 l -0.6235,-1.0800 l -1.2470,-0.0000 l 0.6235,-1.0800 l -0.6235,-1.0800 l -1.2470,-0.0000 l -0.6235,1.0800 l -0.6235,-1.0800 l -1.2470,-0.0000 l 0.6235,-1.0800 l -0.6235,-1.0800 l 1.2470,-0.0000 l 0.6235,-1.0800 l -0.6235,-1.0800 l -1.2470,-0.0000 l 0.6235,-1.0800 l -0.6235,-1.0800 l 1.2470,-0.0000 l 0.6235,-1.0800 l 0.6235,1.0800 l 1.2470,-0.0000 l 0.6235,-1.0800 l -0.6235,-1.0800 l 1.2470,-0.0000 l 0.6235,-1.0800 l -0.6235,-1.0800 l -1.2470,-0.0000 l 0.6235,-1.0800 l -0.6235,-1.0800 l -1.2470,-0.0000 l -0.6235,1.0800 l -0.6235,-1.0800 l -1.2470,-0.0000 l 0.6235,-1.0800 l -0.6235,-1.0800 l 1.2470,-0.0000 l 0.6235,-1.0800 l -0.6235,-1.0800 l -1.2470,-0.0000 l 0.6235,-1.0800 l -0.6235,-1.0800 l -1.2470,-0.0000 l -0.6235,1.0800 l -0.6235,-1.0800 l -1.2470,-0.0000 l -0.6235,1.0800 l 0.6235,1.0800 l -1.2470,-0.0000 l -0.6235,1.0800 l -0.6235,-1.0800 l -1.2470,-0.0000 l 0.6235,-1.0800 l -0.6235,-1.0800 l -1.2470,-0.0000 l -0.6235,1.0800 l -0.6235,-1.0800 l -1.2470,-0.0000 l -0.6235,1.0800 l 0.6235,1.0800 l -1.2470,-0.0000 l -0.6235,1.0800 l 0.6235,1.0800 l 1.2470,0.0000 l -0.6235,1.0800 l 0.6235,1.0800 l -1.2470,-0.0000 l -0.6235,1.0800 l -0.6235,-1.0800 l -1.2470,-0.0000 l -0.6235,1.0800 l 0.6235,1.0800 l -1.2470,-0.0000 l -0.6235,1.0800 l -0.6235,-1.0800 l -1.2470,-0.0000 l 0.6235,-1.0800 l -0.6235,-1.0800 l -1.2470,-0.0000 l -0.6235,1.0800 l -0.6235,-1.0800 l -1.2470,-0.0000 l 0.6235,-1.0800 l -0.6235,-1.0800 l 1.2470,-0.0000 l 0.6235,-1.0800 l -0.6235,-1.0800 l -1.2470,-0.0000 l 0.6235,-1.0800 l -0.6235,-1.0800 l -1.2470,-0.0000 l -0.6235,1.0800 l -0.6235,-1.0800 l -1.2470,-0.0000 l -0.6235,1.0800 l 0.6235,1.0800 l -1.2470,-0.0000 l -0.6235,1.0800 l -0.6235,-1.0800 l -1.2470,-0.0000 l 0.6235,-1.0800 l -0.6235,-1.0800 l -1.2470,-0.0000 l -0.6235,1.0800 l -0.6235,-1.0800 l -1.2470,-0.0000 "/></g><g stroke-linejoin="miter" stroke-opacity="1.0" fill-opacity="0.0" stroke="rgb(0,0,0)" stroke-width="0.8773826753016615" fill="rgb(0,0,0)" stroke-linecap="butt" stroke-miterlimit="10.0"><path d="M 348.4848,664.8276 l 1.8706,-3.2399 l -1.8706,-3.2399 l 3.7411,0.0000 l 1.8706,-3.2399 l -1.8706,-3.2399 l -3.7411,-0.0000 l 1.8706,-3.2399 l -1.8706,-3.2399 h 3.7411 l 1.8706,-3.2399 l 1.8706,3.2399 h 3.7411 l 1.8706,-3.2399 l -1.8706,-3.2399 l 3.7411,0.0000 l 1.8706,-3.2399 l -1.8706,-3.2399 l -3.7411,-0.0000 l 1.8706,-3.2399 l -1.8706,-3.2399 l -3.7411,-0.0000 l -1.8706,3.2399 l -1.8706,-3.2399 l -3.7411,-0.0000 l 1.8706,-3.2399 l -1.8706,-3.2399 h 3.7411 l 1.8706,-3.2399 l -1.8706,-3.2399 l -3.7411,-0.0000 l 1.8706,-3.2399 l -1.8706,-3.2399 h 3.7411 l 1.8706,-3.2399 l 1.8706,3.2399 h 3.7411 l 1.8706,-3.2399 l -1.8706,-3.2399 l 3.7411,0.0000 l 1.8706,-3.2399 l 1.8706,3.2399 l 3.7411,-0.0000 l -1.8706,3.2399 l 1.8706,3.2399 h 3.7411 l 1.8706,-3.2399 l 1.8706,3.2399 h 3.7411 l 1.8706,-3.2399 l -1.8706,-3.2399 l 3.7411,0.0000 l 1.8706,-3.2399 l -1.8706,-3.2399 l -3.7411,-0.0000 l 1.8706,-3.2399 l -1.8706,-3.2399 h 3.7411 l 1.8706,-3.2399 l 1.8706,3.2399 h 3.7411 l 1.8706,-3.2399 l -1.8706,-3.2399 l 3.7411,0.0000 l 1.8706,-3.2399 l -1.8706,-3.2399 l -3.7411,-0.0000 l 1.8706,-3.2399 l -1.8706,-3.2399 l -3.7411,-0.0000 l -1.8706,3.2399 l -1.8706,-3.2399 l -3.7411,-0.0000 l 1.8706,-3.2399 l -1.8706,-3.2399 l 3.7411,0.0000 l 1.8706,-3.2399 l -1.8706,-3.2399 l -3.7411,-0.0000 l 1.8706,-3.2399 l -1.8706,-3.2399 l -3.7411,-0.0000 l -1.8706,3.2399 l -1.8706,-3.2399 l -3.7411,-0.0000 l -1.8706,3.2399 l 1.8706,3.2399 l -3.7411,-0.0000 l -1.8706,3.2399 l -1.8706,-3.2399 l -3.7411,-0.0000 l 1.8706,-3.2399 l -1.8706,-3.2399 l -3.7411,-0.0000 l -1.8706,3.2399 l -1.8706,-3.2399 l -3.7411,-0.0000 l 1.8706,-3.2399 l -1.8706,-3.2399 l 3.7411,0.0000 l 1.8706,-3.2399 l -1.8706,-3.2399 l -3.7411,-0.0000 l 1.8706,-3.2399 l -1.8706,-3.2399 l 3.7411,0.0000 l 1.8706,-3.2399 l 1.8706,3.2399 l 3.7411,0.0000 l 1.8706,-3.2399 l -1.8706,-3.2399 l 3.7411,0.0000 l 1.8706,-3.2399 l -1.8706,-3.2399 l -3.7411,-0.0000 l 1.8706,-3.2399 l -1.8706,-3.2399 l -3.7411,-0.0000 l -1.8706,3.2399 l -1.8706,-3.2399 l -3.7411,-0.0000 l 1.8706,-3.2399 l -1.8706,-3.2399 l 3.7411,0.0000 l 1.8706,-3.2399 l -1.8706,-3.2399 l -3.7411,-0.0000 l 1.8706,-3.2399 l -1.8706,-3.2399 l 3.7411,-0.0000 l 1.8706,-3.2399 l 1.8706,3.2399 l 3.7411,-0.0000 l 1.8706,-3.2399 l -1.8706,-3.2399 h 3.7411 l 1.8706,-3.2399 l 1.8706,3.2399 l 3.7411,-0.0000 l -1.8706,3.2399 l 1.8706,3.2399 l 3.7411,-0.0000 l 1.8706,-3.2399 l 1.8706,3.2399 l 3.7411,-0.0000 l 1.8706,-3.2399 l -1.8706,-3.2399 h 3.7411 l 1.8706,-3.2399 l -1.8706,-3.2399 l -3.7411,-0.0000 l 1.8706,-3.2399 l -1.8706,-3.2399 l 3.7411,-0.0000 l 1.8706,-3.2399 l 1.8706,3.2399 l 3.7411,-0.0000 l 1.8706,-3.2399 l -1.8706,-3.2399 h 3.7411 l 1.8706,-3.2399 l 1.8706,3.2399 l 3.7411,-0.0000 l -1.8706,3.2399 l 1.8706,3.2399 l 3.7411,-0.0000 l 1.8706,-3.2399 l 1.8706,3.2399 l 3.7411,-0.0000 l -1.8706,3.2399 l 1.8706,3.2399 l -3.7411,0.0000 l -1.8706,3.2399 l 1.8706,3.2399 l 3.7411,-0.0000 l -1.8706,3.2399 l 1.8706,3.2399 l 3.7411,-0.0000 l 1.8706,-3.2399 l 1.8706,3.2399 l 3.7411,-0.0000 l 1.8706,-3.2399 l -1.8706,-3.2399 h 3.7411 l 1.8706,-3.2399 l 1.8706,3.2399 l 3.7411,-0.0000 l -1.8706,3.2399 l 1.8706,3.2399 l 3.7411,-0.0000 l 1.8706,-3.2399 l 1.8706,3.2399 l 3.7411,-0.0000 l 1.8706,-3.2399 l -1.8706,-3.2399 l 3.7411,0.0000 l 1.8706,-3.2399 l -1.8706,-3.2399 l -3.7411,-0.0000 l 1.8706,-3.2399 l -1.8706,-3.2399 h 3.7411 l 1.8706,-3.2399 l 1.8706,3.2399 h 3.7411 l 1.8706,-3.2399 l -1.8706,-3.2399 l 3.7411,0.0000 l 1.8706,-3.2399 l -1.8706,-3.2399 l -3.7411,-0.0000 l 1.8706,-3.2399 l -1.8706,-3.2399 l -3.7411,-0.0000 l -1.8706,3.2399 l -1.8706,-3.2399 l -3.7411,-0.0000 l 1.8706,-3.2399 l -1.8706,-3.2399 h 3.7411 l 1.8706,-3.2399 l -1.8706,-3.2399 l -3.7411,-0.0000 l 1.8706,-3.2399 l -1.8706,-3.2399 h 3.7411 l 1.8706,-3.2399 l 1.8706,3.2399 h 3.7411 l 1.8706,-3.2399 l -1.8706,-3.2399 l 3.7411,0.0000 l 1.8706,-3.2399 l 1.8706,3.2399 l 3.7411,-0.0000 l -1.8706,3.2399 l 1.8706,3.2399 h 3.7411 l 1.8706,-3.2399 l 1.8706,3.2399 h 3.7411 l 1.8706,-3.2399 l -1.8706,-3.2399 l 3.7411,0.0000 l 1.8706,-3.2399 l -1.8706,-3.2399 l -3.7411,-0.0000 l 1.8706,-3.2399 l -1.8706,-3.2399 h 3.7411 l 1.8706,-3.2399 l 1.8706,3.2399 h 3.7411 l 1.8706,-3.2399 l -1.8706,-3.2399 l 3.7411,0.0000 l 1.8706,-3.2399 l 1.8706,3.2399 l 3.7411,-0.0000 l -1.8706,3.2399 l 1.8706,3.2399 h 3.7411 l 1.8706,-3.2399 l 1.8706,3.2399 h 3.7411 l -1.8706,3.2399 l 1.8706,3.2399 l -3.7411,0.0000 l -1.8706,3.2399 l 1.8706,3.2399 l 3.7411,-0.0000 l -1.8706,3.2399 l 1.8706,3.2399 h 3.7411 l 1.8706,-3.2399 l 1.8706,3.2399 h 3.7411 l 1.8706,-3.2399 l -1.8706,-3.2399 l 3.7411,0.0000 l 1.8706,-3.2399 l 1.8706,3.2399 l 3.7411,-0.0000 l -1.8706,3.2399 l 1.8706,3.2399 h 3.7411 l 1.8706,-3.2399 l 1.8706,3.2399 h 3.7411 l -1.8706,3.2399 l 1.8706,3.2399 l -3.7411,0.0000 l -1.8706,3.2399 l 1.8706,3.2399 h 3.7411 l -1.8706,3.2399 l 1.8706,3.2399 l -3.7411,0.0000 l -1.8706,3.2399 l -1.8706,-3.2399 l -3.7411,0.0000 l -1.8706,3.2399 l 1.8706,3.2399 l -3.7411,0.0000 l -1.8706,3.2399 l 1.8706,3.2399 l 3.7411,-0.0000 l -1.8706,3.2399 l 1.8706,3.2399 h 3.7411 l 1.8706,-3.2399 l 1.8706,3.2399 h 3.7411 l -1.8706,3.2399 l 1.8706,3.2399 l -3.7411,0.0000 l -1.8706,3.2399 l 1.8706,3.2399 l 3.7411,-0.0000 l -1.8706,3.2399 l 1.8706,3.2399 l 3.7411,0.0000 l 1.8706,-3.2399 l 1.8706,3.2399 l 3.7411,0.0000 l 1.8706,-3.2399 l -1.8706,-3.2399 l 3.7411,0.0000 l 1.8706,-3.2399 l 1.8706,3.2399 h 3.7411 l -1.8706,3.2399 l 1.8706,3.2399 l 3.7411,0.0000 l 1.8706,-3.2399 l 1.8706,3.2399 l 3.7411,0.0000 l 1.8706,-3.2399 l -1.8706,-3.2399 l 3.7411,0.0000 l 1.8706,-3.2399 l -1.8706,-3.2399 l -3.7411,-0.0000 l 1.8706,-3.2399 l -1.8706,-3.2399 l 3.7411,0.0000 l 1.8706,-3.2399 l 1.8706,3.2399 l 3.7411,0.0000 l 1.8706,-3.2399 l -1.8706,-3.2399 l 3.7411,0.0000 l 1.8706,-3.2399 l 1.8706,3.2399 h 3.7411 l -1.8706,3.2399 l 1.8706,3.2399 l 3.7411,0.0000 l 1.8706,-3.2399 l 1.8706,3.2399 l 3.7411,0.0000 l -1.8706,3.2399 l 1.8706,3.2399 l -3.7411,0.0000 l -1.8706,3.2399 l 1.8706,3.2399 h 3.7411 l -1.8706,3.2399 l 1.8706,3.2399 l 3.7411,0.0000 l 1.8706,-3.2399 l 1.8706,3.2399 l 3.7411,0.0000 l 1.8706,-3.2399 l -1.8706,-3.2399 l 3.7411,0.0000 l 1.8706,-3.2399 l 1.8706,3.2399 h 3.7411 l -1.8706,3.2399 l 1.8706,3.2399 l 3.7411,0.0000 l 1.8706,-3.2399 l 1.8706,3.2399 l 3.7411,0.0000 l -1.8706,3.2399 l 1.8706,3.2399 l -3.7411,0.0000 l -1.8706,3.2399 l 1.8706,3.2399 l 3.7411,-0.0000 l -1.8706,3.2399 l 1.8706,3.2399 l -3.7411,0.0000 l -1.8706,3.2399 l -1.8706,-3.2399 l -3.7411,0.0000 l -1.8706,3.2399 l 1.8706,3.2399 l -3.7411,0.0000 l -1.8706,3.2399 l 1.8706,3.2399 l 3.7411,-0.0000 l -1.8706,3.2399 l 1.8706,3.2399 l 3.7411,-0.0000 l 1.8706,-3.2399 l 1.8706,3.2399 l 3.7411,-0.0000 l -1.8706,3.2399 l 1.8706,3.2399 l -3.7411,0.0000 l -1.8706,3.2399 l 1.8706,3.2399 l 3.7411,-0.0000 l -1.8706,3.2399 l 1.8706,3.2399 l -3.7411,0.0000 l -1.8706,3.2399 l -1.8706,-3.2399 l -3.7411,0.0000 l -1.8706,3.2399 l 1.8706,3.2399 l -3.7411,0.0000 l -1.8706,3.2399 l -1.8706,-3.2399 l -3.7411,0.0000 l 1.8706,-3.2399 l -1.8706,-3.2399 l -3.7411,0.0000 l -1.8706,3.2399 l -1.8706,-3.2399 l -3.7411,0.0000 l -1.8706,3.2399 l 1.8706,3.2399 l -3.7411,0.0000 l -1.8706,3.2399 l 1.8706,3.2399 l 3.7411,-0.0000 l -1.8706,3.2399 l 1.8706,3.2399 l -3.7411,0.0000 l -1.8706,3.2399 l -1.8706,-3.2399 l -3.7411,0.0000 l -1.8706,3.2399 l 1.8706,3.2399 l -3.7411,0.0000 l -1.8706,3.2399 l 1.8706,3.2399 l 3.7411,-0.0000 l -1.8706,3.2399 l 1.8706,3.2399 h 3.7411 l 1.8706,-3.2399 l 1.8706,3.2399 h 3.7411 l -1.8706,3.2399 l 1.8706,3.2399 l -3.7411,0.0000 l -1.8706,3.2399 l 1.8706,3.2399 l 3.7411,-0.0000 l -1.8706,3.2399 l 1.8706,3.2399 h 3.7411 l 1.8706,-3.2399 l 1.8706,3.2399 h 3.7411 l 1.8706,-3.2399 l -1.8706,-3.2399 l 3.7411,0.0000 l 1.8706,-3.2399 l 1.8706,3.2399 l 3.7411,-0.0000 l -1.8706,3.2399 l 1.8706,3.2399 h 3.7411 l 1.8706,-3.2399 l 1.8706,3.2399 h 3.7411 l -1.8706,3.2399 l 1.8706,3.2399 l -3.7411,0.0000 l -1.8706,3.2399 l 1.8706,3.2399 h 3.7411 l -1.8706,3.2399 l 1.8706,3.2399 l -3.7411,0.0000 l -1.8706,3.2399 l -1.8706,-3.2399 l -3.7411,0.0000 l -1.8706,3.2399 l 1.8706,3.2399 l -3.7411,0.0000 l -1.8706,3.2399 l 1.8706,3.2399 l 3.7411,-0.0000 l -1.8706,3.2399 l 1.8706,3.2399 h 3.7411 l 1.8706,-3.2399 l 1.8706,3.2399 h 3.7411 l -1.8706,3.2399 l 1.8706,3.2399 l -3.7411,0.0000 l -1.8706,3.2399 l 1.8706,3.2399 l 3.7411,-0.0000 l -1.8706,3.2399 l 1.8706,3.2399 l -3.7411,-0.0000 l -1.8706,3.2399 l -1.8706,-3.2399 l -3.7411,-0.0000 l -1.8706,3.2399 l 1.8706,3.2399 l -3.7411,-0.0000 l -1.8706,3.2399 l -1.8706,-3.2399 l -3.7411,-0.0000 l 1.8706,-3.2399 l -1.8706,-3.2399 l -3.7411,-0.0000 l -1.8706,3.2399 l -1.8706,-3.2399 l -3.7411,-0.0000 l -1.8706,3.2399 l 1.8706,3.2399 l -3.7411,-0.0000 l -1.8706,3.2399 l 1.8706,3.2399 l 3.7411,0.0000 l -1.8706,3.2399 l 1.8706,3.2399 l -3.7411,-0.0000 l -1.8706,3.2399 l -1.8706,-3.2399 l -3.7411,-0.0000 l -1.8706,3.2399 l 1.8706,3.2399 l -3.7411,-0.0000 l -1.8706,3.2399 l -1.8706,-3.2399 l -3.7411,-0.0000 l 1.8706,-3.2399 l -1.8706,-3.2399 l -3.7411,-0.0000 l -1.8706,3.2399 l -1.8706,-3.2399 l -3.7411,-0.0000 l 1.8706,-3.2399 l -1.8706,-3.2399 l 3.7411,-0.0000 l 1.8706,-3.2399 l -1.8706,-3.2399 l -3.7411,-0.0000 l 1.8706,-3.2399 l -1.8706,-3.2399 l -3.7411,-0.0000 l -1.8706,3.2399 l -1.8706,-3.2399 l -3.7411,-0.0000 l -1.8706,3.2399 l 1.8706,3.2399 l -3.7411,-0.0000 l -1.8706,3.2399 l -1.8706,-3.2399 l -3.7411,-0.0000 l 1.8706,-3.2399 l -1.8706,-3.2399 l -3.7411,-0.0000 l -1.8706,3.2399 l -1.8706,-3.2399 l -3.7411,-0.0000 l -1.8706,3.2399 l 1.8706,3.2399 l -3.7411,-0.0000 l -1.8706,3.2399 l 1.8706,3.2399 l 3.7411,0.0000 l -1.8706,3.2399 l 1.8706,3.2399 l -3.7411,-0.0000 l -1.8706,3.2399 l -1.8706,-3.2399 l -3.7411,-0.0000 l -1.8706,3.2399 l 1.8706,3.2399 l -3.7411,-0.0000 l -1.8706,3.2399 l 1.8706,3.2399 l 3.7411,0.0000 l -1.8706,3.2399 l 1.8706,3.2399 l 3.7411,0.0000 l 1.8706,-3.2399 l 1.8706,3.2399 l 3.7411,0.0000 l -1.8706,3.2399 l 1.8706,3.2399 l -3.7411,-0.0000 l -1.8706,3.2399 l 1.8706,3.2399 l 3.7411,0.0000 l -1.8706,3.2399 l 1.8706,3.2399 l -3.7411,-0.0000 l -1.8706,3.2399 l -1.8706,-3.2399 l -3.7411,-0.0000 l -1.8706,3.2399 l 1.8706,3.2399 l -3.7411,-0.0000 l -1.8706,3.2399 l -1.8706,-3.2399 l -3.7411,-0.0000 l 1.8706,-3.2399 l -1.8706,-3.2399 l -3.7411,-0.0000 l -1.8706,3.2399 l -1.8706,-3.2399 l -3.7411,-0.0000 l -1.8706,3.2399 l 1.8706,3.2399 l -3.7411,-0.0000 l -1.8706,3.2399 l 1.8706,3.2399 l 3.7411,0.0000 l -1.8706,3.2399 l 1.8706,3.2399 l -3.7411,-0.0000 l -1.8706,3.2399 l -1.8706,-3.2399 l -3.7411,-0.0000 l -1.8706,3.2399 l 1.8706,3.2399 l -3.7411,-0.0000 l -1.8706,3.2399 l -1.8706,-3.2399 l -3.7411,-0.0000 l 1.8706,-3.2399 l -1.8706,-3.2399 l -3.7411,-0.0000 l -1.8706,3.2399 l -1.8706,-3.2399 l -3.7411,-0.0000 l 1.8706,-3.2399 l -1.8706,-3.2399 l 3.7411,-0.0000 l 1.8706,-3.2399 l -1.8706,-3.2399 l -3.7411,-0.0000 l 1.8706,-3.2399 l -1.8706,-3.2399 l -3.7411,-0.0000 l -1.8706,3.2399 l -1.8706,-3.2399 l -3.7411,-0.0000 l -1.8706,3.2399 l 1.8706,3.2399 l -3.7411,-0.0000 l -1.8706,3.2399 l -1.8706,-3.2399 l -3.7411,-0.0000 l 1.8706,-3.2399 l -1.8706,-3.2399 l -3.7411,-0.0000 l -1.8706,3.2399 l -1.8706,-3.2399 l -3.7411,-0.0000 l 1.8706,-3.2399 l -1.8706,-3.2399 l 3.7411,-0.0000 l 1.8706,-3.2399 l -1.8706,-3.2399 l -3.7411,-0.0000 l 1.8706,-3.2399 l -1.8706,-3.2399 l 3.7411,-0.0000 l 1.8706,-3.2399 l 1.8706,3.2399 l 3.7411,-0.0000 l 1.8706,-3.2399 l -1.8706,-3.2399 l 3.7411,-0.0000 l 1.8706,-3.2399 l -1.8706,-3.2399 l -3.7411,-0.0000 l 1.8706,-3.2399 l -1.8706,-3.2399 l -3.7411,-0.0000 l -1.8706,3.2399 l -1.8706,-3.2399 l -3.7411,-0.0000 l 1.8706,-3.2399 l -1.8706,-3.2399 l 3.7411,-0.0000 l 1.8706,-3.2399 l -1.8706,-3.2399 l -3.7411,-0.0000 l 1.8706,-3.2399 l -1.8706,-3.2399 l -3.7411,-0.0000 l -1.8706,3.2399 l -1.8706,-3.2399 l -3.7411,-0.0000 l -1.8706,3.2399 l 1.8706,3.2399 l -3.7411,-0.0000 l -1.8706,3.2399 l -1.8706,-3.2399 l -3.7411,-0.0000 l 1.8706,-3.2399 l -1.8706,-3.2399 l -3.7411,-0.0000 l -1.8706,3.2399 l -1.8706,-3.2399 l -3.7411,-0.0000 l -1.8706,3.2399 l 1.8706,3.2399 l -3.7411,-0.0000 l -1.8706,3.2399 l 1.8706,3.2399 l 3.7411,0.0000 l -1.8706,3.2399 l 1.8706,3.2399 l -3.7411,-0.0000 l -1.8706,3.2399 l -1.8706,-3.2399 l -3.7411,-0.0000 l -1.8706,3.2399 l 1.8706,3.2399 l -3.7411,-0.0000 l -1.8706,3.2399 l -1.8706,-3.2399 l -3.7411,-0.0000 l 1.8706,-3.2399 l -1.8706,-3.2399 l -3.7411,-0.0000 l -1.8706,3.2399 l -1.8706,-3.2399 l -3.7411,-0.0000 l 1.8706,-3.2399 l -1.8706,-3.2399 l 3.7411,-0.0000 l 1.8706,-3.2399 l -1.8706,-3.2399 l -3.7411,-0.0000 l 1.8706,-3.2399 l -1.8706,-3.2399 l -3.7411,-0.0000 l -1.8706,3.2399 l -1.8706,-3.2399 l -3.7411,-0.0000 l -1.8706,3.2399 l 1.8706,3.2399 l -3.7411,-0.0000 l -1.8706,3.2399 l -1.8706,-3.2399 l -3.7411,-0.0000 l 1.8706,-3.2399 l -1.8706,-3.2399 l -3.7411,-0.0000 l -1.8706,3.2399 l -1.8706,-3.2399 l -3.7411,-0.0000 "/></g><g stroke-linejoin="miter" stroke-opacity="1.0" fill-opacity="0.0" stroke="rgb(0,0,0)" stroke-width="0.8773826753016615" fill="rgb(0,0,0)" stroke-linecap="butt" stroke-miterlimit="10.0"><path d="M 15.1515,664.8276 l 5.6117,-9.7197 l -5.6117,-9.7197 l 11.2233,0.0000 l 5.6117,-9.7197 l -5.6117,-9.7197 l -11.2233,-0.0000 l 5.6117,-9.7197 l -5.6117,-9.7197 h 11.2233 l 5.6117,-9.7197 l 5.6117,9.7197 h 11.2233 l 5.6117,-9.7197 l -5.6117,-9.7197 l 11.2233,0.0000 l 5.6117,-9.7197 l -5.6117,-9.7197 l -11.2233,-0.0000 l 5.6117,-9.7197 l -5.6117,-9.7197 l -11.2233,-0.0000 l -5.6117,9.7197 l -5.6117,-9.7197 l -11.2233,-0.0000 l 5.6117,-9.7197 l -5.6117,-9.7197 h 11.2233 l 5.6117,-9.7197 l -5.6117,-9.7197 l -11.2233,-0.0000 l 5.6117,-9.7197 l -5.6117,-9.7197 h 11.2233 l 5.6117,-9.7197 l 5.6117,9.7197 h 11.2233 l 5.6117,-9.7197 l -5.6117,-9.7197 l 11.2233,0.0000 l 5.6117,-9.7197 l 5.6117,9.7197 l 11.2233,-0.0000 l -5.6117,9.7197 l 5.6117,9.7197 h 11.2233 l 5.6117,-9.7197 l 5.6117,9.7197 h 11.2233 l 5.6117,-9.7197 l -5.6117,-9.7197 l 11.2233,0.0000 l 5.6117,-9.7197 l -5.6117,-9.7197 l -11.2233,-0.0000 l 5.6117,-9.7197 l -5.6117,-9.7197 h 11.2233 l 5.6117,-9.7197 l 5.6117,9.7197 h 11.2233 l 5.6117,-9.7197 l -5.6117,-9.7197 l 11.2233,0.0000 l 5.6117,-9.7197 l 5.6117,9.7197 l 11.2233,-0.0000 l -5.6117,9.7197 l 5.6117,9.7197 h 11.2233 l 5.6117,-9.7197 l 5.6117,9.7197 h 11.2233 l -5.6117,9.7197 l 5.6117,9.7197 l -11.2233,0.0000 l -5.6117,9.7197 l 5.6117,9.7197 l 11.2233,-0.0000 l -5.6117,9.7197 l 5.6117,9.7197 h 11.2233 l 5.6117,-9.7197 l 5.6117,9.7197 h 11.2233 l 5.6117,-9.7197 l -5.6117,-9.7197 l 11.2233,0.0000 l 5.6117,-9.7197 l 5.6117,9.7197 l 11.2233,-0.0000 l -5.6117,9.7197 l 5.6117,9.7197 h 11.2233 l 5.6117,-9.7197 l 5.6117,9.7197 h 11.2233 l -5.6117,9.7197 l 5.6117,9.7197 l -11.2233,0.0000 l -5.6117,9.7197 l 5.6117,9.7197 h 11.2233 l -5.6117,9.7197 l 5.6117,9.7197 l -11.2233,0.0000 l -5.6117,9.7197 l -5.6117,-9.7197 l -11.2233,0.0000 l -5.6117,9.7197 l 5.6117,9.7197 l -11.2233,0.0000 l -5.6117,9.7197 l 5.6117,9.7197 l 11.2233,-0.0000 l -5.6117,9.7197 l 5.6117,9.7197 h 11.2233 l 5.6117,-9.7197 l 5.6117,9.7197 h 11.2233 l -5.6117,9.7197 l 5.6117,9.7197 l -11.2233,0.0000 l -5.6117,9.7197 l 5.6117,9.7197 l 11.2233,-0.0000 l -5.6117,9.7197 l 5.6117,9.7197 l -11.2233,-0.0000 l -5.6117,9.7197 l -5.6117,-9.7197 l -11.2233,-0.0000 l -5.6117,9.7197 l 5.6117,9.7197 l -11.2233,-0.0000 l -5.6117,9.7197 l -5.6117,-9.7197 l -11.2233,-0.0000 l 5.6117,-9.7197 l -5.6117,-9.7197 l -11.2233,-0.0000 l -5.6117,9.7197 l -5.6117,-9.7197 l -11.2233,-0.0000 l -5.6117,9.7197 l 5.6117,9.7197 l -11.2233,-0.0000 l -5.6117,9.7197 l 5.6117,9.7197 l 11.2233,0.0000 l -5.6117,9.7197 l 5.6117,9.7197 l -11.2233,-0.0000 l -5.6117,9.7197 l -5.6117,-9.7197 l -11.2233,-0.0000 l -5.6117,9.7197 l 5.6117,9.7197 l -11.2233,-0.0000 l -5.6117,9.7197 l -5.6117,-9.7197 l -11.2233,-0.0000 l 5.6117,-9.7197 l -5.6117,-9.7197 l -11.2233,-0.0000 l -5.6117,9.7197 l -5.6117,-9.7197 l -11.2233,-0.0000 l 5.6117,-9.7197 l -5.6117,-9.7197 l 11.2233,-0.0000 l 5.6117,-9.7197 l -5.6117,-9.7197 l -11.2233,-0.0000 l 5.6117,-9.7197 l -5.6117,-9.7197 l -11.2233,-0.0000 l -5.6117,9.7197 l -5.6117,-9.7197 l -11.2233,-0.0000 l -5.6117,9.7197 l 5.6117,9.7197 l -11.2233,-0.0000 l -5.6117,9.7197 l -5.6117,-9.7197 l -11.2233,-0.0000 l 5.6117,-9.7197 l -5.6117,-9.7197 l -11.2233,-0.0000 l -5.6117,9.7197 l -5.6117,-9.7197 l -11.2233,-0.0000 "/></g><g stroke-linejoin="miter" stroke-opacity="1.0" fill-opacity="0.0" stroke="rgb(0,0,0)" stroke-width="0.8773826753016615" fill="rgb(0,0,0)" stroke-linecap="butt" stroke-miterlimit="10.0"><path d="M 681.8182,279.9274 l 16.8350,-29.1591 l -16.8350,-29.1591 l 33.6700,0.0000 l 16.8350,-29.1591 l -16.8350,-29.1591 l -33.6700,-0.0000 l 16.8350,-29.1591 l -16.8350,-29.1591 h 33.6700 l 16.8350,-29.1591 l 16.8350,29.1591 h 33.6700 l 16.8350,-29.1591 l -16.8350,-29.1591 l 33.6700,0.0000 l 16.8350,-29.1591 l 16.8350,29.1591 l 33.6700,-0.0000 l -16.8350,29.1591 l 16.8350,29.1591 h 33.6700 l 16.8350,-29.1591 l 16.8350,29.1591 h 33.6700 l -16.8350,29.1591 l 16.8350,29.1591 l -33.6700,0.0000 l -16.8350,29.1591 l 16.8350,29.1591 l 33.6700,-0.0000 l -16.8350,29.1591 l 16.8350,29.1591 l -33.6700,-0.0000 l -16.8350,29.1591 l -16.8350,-29.1591 l -33.6700,-0.0000 l -16.8350,29.1591 l 16.8350,29.1591 l -33.6700,-0.0000 l -16.8350,29.1591 l -16.8350,-29.1591 l -33.6700,-0.0000 l 16.8350,-29.1591 l -16.8350,-29.1591 l -33.6700,-0.0000 l -16.8350,29.1591 l -16.8350,-29.1591 l -33.6700,-0.0000 "/></g><g stroke-linejoin="miter" stroke-opacity="1.0" fill-opacity="0.0" stroke="rgb(0,0,0)" stroke-width="0.8773826753016615" fill="rgb(0,0,0)" stroke-linecap="butt" stroke-miterlimit="10.0"><path d="M 348.4848,279.9274 l 50.5051,-87.4773 l -50.5051,-87.4773 h 101.0101 l 50.5051,-87.4773 l 50.5051,87.4773 h 101.0101 l -50.5051,87.4773 l 50.5051,87.4773 l -101.0101,-0.0000 l -50.5051,87.4773 l -50.5051,-87.4773 l -101.0101,-0.0000 "/></g><g stroke-linejoin="miter" stroke-opacity="1.0" fill-opacity="0.0" stroke="rgb(0,0,0)" stroke-width="0.8773826753016615" fill="rgb(0,0,0)" stroke-linecap="butt" stroke-miterlimit="10.0"><path d="M 15.1515,323.6661 l 151.5152,-262.4319 l 151.5152,262.4319 l -303.0303,-0.0000 "/></g></svg>