<?xml version="1.0" encoding="UTF-8"?>
<!DOCTYPE svg PUBLIC "-//W3C//DTD SVG 1.1//EN"
    "http://www.w3.org/Graphics/SVG/1.1/DTD/svg11.dtd"><svg xmlns="http://www.w3.org/2000/svg" height="977.1429" stroke-opacity="1" viewBox="0 0 1800 977" font-size="1" width="1800.0000" xmlns:xlink="http://www.w3.org/1999/xlink" stroke="rgb(0,0,0)" version="1.1"><defs></defs><g stroke-linejoin="miter" stroke-opacity="1.0" fill-opacity="1.0" stroke="rgb(0,0,0)" stroke-width="0.0" fill="rgb(0,0,0)" stroke-linecap="butt" stroke-miterlimit="10.0"><defs><clipPath id="knotmyClip1"><path d="M 151.9481,862.5974 h 1496.1039 v -748.0519 h -1496.1039 Z"/></clipPath></defs><g clip-path="url(#knotmyClip1)"><path d="M 151.9481,862.5974 l -23.3766,-23.3766 l 23.3766,-23.3766 l 23.3766,23.3766 l -23.3766,23.3766 l -23.3766,23.3766 l -46.7532,-46.7532 l 11.6883,-11.6883 l 23.3766,23.3766 l 11.6883,-11.6883 l 23.3766,23.3766 l 23.3766,23.3766 l -46.7532,46.7532 l -11.6883,-11.6883 l 23.3766,-23.3766 l -11.6883,-11.6883 l 23.3766,-23.3766 l 23.3766,-23.3766 l 23.3766,23.3766 l -23.3766,23.3766 ZM 151.9481,675.5844 l -23.3766,-23.3766 l 23.3766,-23.3766 l 23.3766,23.3766 l -23.3766,23.3766 l -23.3766,23.3766 l -46.7532,-46.7532 l 11.6883,-11.6883 l 23.3766,23.3766 l 11.6883,-11.6883 l 23.3766,23.3766 l 23.3766,23.3766 l -23.3766,23.3766 l -23.3766,-23.3766 l 23.3766,-23.3766 l 23.3766,-23.3766 l 46.7532,46.7532 l -11.6883,11.6883 l -23.3766,-23.3766 l -11.6883,11.6883 ZM 151.9481,488.5714 l -23.3766,-23.3766 l 23.3766,-23.3766 l 23.3766,23.3766 l -23.3766,23.3766 l -23.3766,23.3766 l -46.7532,-46.7532 l 11.6883,-11.6883 l 23.3766,23.3766 l 11.6883,-11.6883 l 23.3766,23.3766 l 23.3766,23.3766 l -23.3766,23.3766 l -23.3766,-23.3766 l 23.3766,-23.3766 l 23.3766,-23.3766 l 46.7532,46.7532 l -11.6883,11.6883 l -23.3766,-23.3766 l -11.6883,11.6883 ZM 151.9481,301.5584 l -23.3766,-23.3766 l 23.3766,-23.3766 l 23.3766,23.3766 l -23.3766,23.3766 l -23.3766,23.3766 l -46.7532,-46.7532 l 11.6883,-11.6883 l 23.3766,23.3766 l 11.6883,-11.6883 l 23.3766,23.3766 l 23.3766,23.3766 l -23.3766,23.3766 l -23.3766,-23.3766 l 23.3766,-23.3766 l 23.3766,-23.3766 l 46.7532,46.7532 l -11.6883,11.6883 l -23.3766,-23.3766 l -11.6883,11.6883 ZM 151.9481,114.5455 l -23.3766,-23.3766 l 46.7532,-46.7532 l 11.6883,11.6883 l -23.3766,23.3766 l 11.6883,11.6883 l -23.3766,23.3766 l -23.3766,23.3766 l -46.7532,-46.7532 l 11.6883,-11.6883 l 23.3766,23.3766 l 11.6883,-11.6883 l 23.3766,23.3766 l 23.3766,23.3766 l -23.3766,23.3766 l -23.3766,-23.3766 l 23.3766,-23.3766 l 23.3766,-23.3766 l 23.3766,23.3766 l -23.3766,23.3766 ZM 338.9610,862.5974 l -23.3766,-23.3766 l 23.3766,-23.3766 l 23.3766,23.3766 l -23.3766,23.3766 l -23.3766,23.3766 l -23.3766,-23.3766 l 23.3766,-23.3766 l 23.3766,23.3766 l 23.3766,23.3766 l -46.7532,46.7532 l -11.6883,-11.6883 l 23.3766,-23.3766 l -11.6883,-11.6883 l 23.3766,-23.3766 l 23.3766,-23.3766 l 23.3766,23.3766 l -23.3766,23.3766 ZM 338.9610,675.5844 l -23.3766,-23.3766 l 23.3766,-23.3766 l 23.3766,23.3766 l -23.3766,23.3766 l -23.3766,23.3766 l -46.7532,-46.7532 l 11.6883,-11.6883 l 23.3766,23.3766 l 11.6883,-11.6883 l 23.3766,23.3766 l 23.3766,23.3766 l -23.3766,23.3766 l -23.3766,-23.3766 l 23.3766,-23.3766 l 23.3766,-23.3766 l 46.7532,46.7532 l -11.6883,11.6883 l -23.3766,-23.3766 l -11.6883,11.6883 ZM 338.9610,488.5714 l -23.3766,-23.3766 l 46.7532,-46.7532 l 11.6883,11.6883 l -23.3766,23.3766 l 11.6883,11.6883 l -23.3766,23.3766 l -23.3766,23.3766 l -46.7532,-46.7532 l 11.6883,-11.6883 l 23.3766,23.3766 l 11.6883,-11.6883 l 23.3766,23.3766 l 23.3766,23.3766 l -23.3766,23.3766 l -23.3766,-23.3766 l 23.3766,-23.3766 l 23.3766,-23.3766 l 46.7532,46.7532 l -11.6883,11.6883 l -23.3766,-23.3766 l -11.6883,11.6883 ZM 338.9610,301.5584 l -23.3766,-23.3766 l 46.7532,-46.7532 l 11.6883,11.6883 l -23.3766,23.3766 l 11.6883,11.6883 l -23.3766,23.3766 l -23.3766,23.3766 l -46.7532,-46.7532 l 11.6883,-11.6883 l 23.3766,23.3766 l 11.6883,-11.6883 l 23.3766,23.3766 l 23.3766,23.3766 l -46.7532,46.7532 l -11.6883,-11.6883 l 23.3766,-23.3766 l -11.6883,-11.6883 l 23.3766,-23.3766 l 23.3766,-23.3766 l 46.7532,46.7532 l -11.6883,11.6883 l -23.3766,-23.3766 l -11.6883,11.6883 ZM 338.9610,114.5455 l -23.3766,-23.3766 l 46.7532,-46.7532 l 11.6883,11.6883 l -23.3766,23.3766 l 11.6883,11.6883 l -23.3766,23.3766 l -23.3766,23.3766 l -23.3766,-23.3766 l 23.3766,-23.3766 l 23.3766,23.3766 l 23.3766,23.3766 l -46.7532,46.7532 l -11.6883,-11.6883 l 23.3766,-23.3766 l -11.6883,-11.6883 l 23.3766,-23.3766 l 23.3766,-23.3766 l 23.3766,23.3766 l -23.3766,23.3766 ZM 525.9740,862.5974 l -23.3766,-23.3766 l 46.7532,-46.7532 l 11.6883,11.6883 l -23.3766,23.3766 l 11.6883,11.6883 l -23.3766,23.3766 l -23.3766,23.3766 l -23.3766,-23.3766 l 23.3766,-23.3766 l 23.3766,23.3766 l 23.3766,23.3766 l -46.7532,46.7532 l -11.6883,-11.6883 l 23.3766,-23.3766 l -11.6883,-11.6883 l 23.3766,-23.3766 l 23.3766,-23.3766 l 23.3766,23.3766 l -23.3766,23.3766 ZM 525.9740,675.5844 l -23.3766,-23.3766 l 46.7532,-46.7532 l 11.6883,11.6883 l -23.3766,23.3766 l 11.6883,11.6883 l -23.3766,23.3766 l -23.3766,23.3766 l -46.7532,-46.7532 l 11.6883,-11.6883 l 23.3766,23.3766 l 11.6883,-11.6883 l 23.3766,23.3766 l 23.3766,23.3766 l -46.7532,46.7532 l -11.6883,-11.6883 l 23.3766,-23.3766 l -11.6883,-11.6883 l 23.3766,-23.3766 l 23.3766,-23.3766 l 46.7532,46.7532 l -11.6883,11.6883 l -23.3766,-23.3766 l -11.6883,11.6883 ZM 525.9740,488.5714 l -23.3766,-23.3766 l 46.7532,-46.7532 l 11.6883,11.6883 l -23.3766,23.3766 l 11.6883,11.6883 l -23.3766,23.3766 l -23.3766,23.3766 l -46.7532,-46.7532 l 11.6883,-11.6883 l 23.3766,23.3766 l 11.6883,-11.6883 l 23.3766,23.3766 l 23.3766,23.3766 l -46.7532,46.7532 l -11.6883,-11.6883 l 23.3766,-23.3766 l -11.6883,-11.6883 l 23.3766,-23.3766 l 23.3766,-23.3766 l 46.7532,46.7532 l -11.6883,11.6883 l -23.3766,-23.3766 l -11.6883,11.6883 ZM 525.9740,301.5584 l -23.3766,-23.3766 l 46.7532,-46.7532 l 11.6883,11.6883 l -23.3766,23.3766 l 11.6883,11.6883 l -23.3766,23.3766 l -23.3766,23.3766 l -46.7532,-46.7532 l 11.6883,-11.6883 l 23.3766,23.3766 l 11.6883,-11.6883 l 23.3766,23.3766 l 23.3766,23.3766 l -46.7532,46.7532 l -11.6883,-11.6883 l 23.3766,-23.3766 l -11.6883,-11.6883 l 23.3766,-23.3766 l 23.3766,-23.3766 l 23.3766,23.3766 l -23.3766,23.3766 ZM 525.9740,114.5455 l -23.3766,-23.3766 l 46.7532,-46.7532 l 11.6883,11.6883 l -23.3766,23.3766 l 11.6883,11.6883 l -23.3766,23.3766 l -23.3766,23.3766 l -23.3766,-23.3766 l 23.3766,-23.3766 l 23.3766,23.3766 l 23.3766,23.3766 l -46.7532,46.7532 l -11.6883,-11.6883 l 23.3766,-23.3766 l -11.6883,-11.6883 l 23.3766,-23.3766 l 23.3766,-23.3766 l 23.3766,23.3766 l -23.3766,23.3766 ZM 712.9870,862.5974 l -23.3766,-23.3766 l 46.7532,-46.7532 l 11.6883,11.6883 l -23.3766,23.3766 l 11.6883,11.6883 l -23.3766,23.3766 l -23.3766,23.3766 l -23.3766,-23.3766 l 23.3766,-23.3766 l 23.3766,23.3766 l 23.3766,23.3766 l -46.7532,46.7532 l -11.6883,-11.6883 l 23.3766,-23.3766 l -11.6883,-11.6883 l 23.3766,-23.3766 l 23.3766,-23.3766 l 23.3766,23.3766 l -23.3766,23.3766 ZM 712.9870,675.5844 l -23.3766,-23.3766 l 46.7532,-46.7532 l 11.6883,11.6883 l -23.3766,23.3766 l 11.6883,11.6883 l -23.3766,23.3766 l -23.3766,23.3766 l -46.7532,-46.7532 l 11.6883,-11.6883 l 23.3766,23.3766 l 11.6883,-11.6883 l 23.3766,23.3766 l 23.3766,23.3766 l -46.7532,46.7532 l -11.6883,-11.6883 l 23.3766,-23.3766 l -11.6883,-11.6883 l 23.3766,-23.3766 l 23.3766,-23.3766 l 46.7532,46.7532 l -11.6883,11.6883 l -23.3766,-23.3766 l -11.6883,11.6883 ZM 712.9870,488.5714 l -23.3766,-23.3766 l 46.7532,-46.7532 l 11.6883,11.6883 l -23.3766,23.3766 l 11.6883,11.6883 l -23.3766,23.3766 l -23.3766,23.3766 l -46.7532,-46.7532 l 11.6883,-11.6883 l 23.3766,23.3766 l 11.6883,-11.6883 l 23.3766,23.3766 l 23.3766,23.3766 l -46.7532,46.7532 l -11.6883,-11.6883 l 23.3766,-23.3766 l -11.6883,-11.6883 l 23.3766,-23.3766 l 23.3766,-23.3766 l 46.7532,46.7532 l -11.6883,11.6883 l -23.3766,-23.3766 l -11.6883,11.6883 ZM 712.9870,301.5584 l -23.3766,-23.3766 l 46.7532,-46.7532 l 11.6883,11.6883 l -23.3766,23.3766 l 11.6883,11.6883 l -23.3766,23.3766 l -23.3766,23.3766 l -23.3766,-23.3766 l 23.3766,-23.3766 l 23.3766,23.3766 l 23.3766,23.3766 l -46.7532,46.7532 l -11.6883,-11.6883 l 23.3766,-23.3766 l -11.6883,-11.6883 l 23.3766,-23.3766 l 23.3766,-23.3766 l 46.7532,46.7532 l -11.6883,11.6883 l -23.3766,-23.3766 l -11.6883,11.6883 ZM 712.9870,114.5455 l -23.3766,-23.3766 l 46.7532,-46.7532 l 11.6883,11.6883 l -23.3766,23.3766 l 11.6883,11.6883 l -23.3766,23.3766 l -23.3766,23.3766 l -23.3766,-23.3766 l 23.3766,-23.3766 l 23.3766,23.3766 l 23.3766,23.3766 l -46.7532,46.7532 l -11.6883,-11.6883 l 23.3766,-23.3766 l -11.6883,-11.6883 l 23.3766,-23.3766 l 23.3766,-23.3766 l 23.3766,23.3766 l -23.3766,23.3766 ZM 900.0000,862.5974 l -23.3766,-23.3766 l 46.7532,-46.7532 l 11.6883,11.6883 l -23.3766,23.3766 l 11.6883,11.6883 l -23.3766,23.3766 l -23.3766,23.3766 l -23.3766,-23.3766 l 23.3766,-23.3766 l 23.3766,23.3766 l 23.3766,23.3766 l -46.7532,46.7532 l -11.6883,-11.6883 l 23.3766,-23.3766 l -11.6883,-11.6883 l 23.3766,-23.3766 l 23.3766,-23.3766 l 23.3766,23.3766 l -23.3766,23.3766 ZM 900.0000,675.5844 l -23.3766,-23.3766 l 23.3766,-23.3766 l 23.3766,23.3766 l -23.3766,23.3766 l -23.3766,23.3766 l -46.7532,-46.7532 l 11.6883,-11.6883 l 23.3766,23.3766 l 11.6883,-11.6883 l 23.3766,23.3766 l 23.3766,23.3766 l -46.7532,46.7532 l -11.6883,-11.6883 l 23.3766,-23.3766 l -11.6883,-11.6883 l 23.3766,-23.3766 l 23.3766,-23.3766 l 46.7532,46.7532 l -11.6883,11.6883 l -23.3766,-23.3766 l -11.6883,11.6883 ZM 900.0000,488.5714 l -23.3766,-23.3766 l 23.3766,-23.3766 l 23.3766,23.3766 l -23.3766,23.3766 l -23.3766,23.3766 l -46.7532,-46.7532 l 11.6883,-11.6883 l 23.3766,23.3766 l 11.6883,-11.6883 l 23.3766,23.3766 l 23.3766,23.3766 l -23.3766,23.3766 l -23.3766,-23.3766 l 23.3766,-23.3766 l 23.3766,-23.3766 l 46.7532,46.7532 l -11.6883,11.6883 l -23.3766,-23.3766 l -11.6883,11.6883 ZM 900.0000,301.5584 l -23.3766,-23.3766 l 46.7532,-46.7532 l 11.6883,11.6883 l -23.3766,23.3766 l 11.6883,11.6883 l -23.3766,23.3766 l -23.3766,23.3766 l -46.7532,-46.7532 l 11.6883,-11.6883 l 23.3766,23.3766 l 11.6883,-11.6883 l 23.3766,23.3766 l 23.3766,23.3766 l -23.3766,23.3766 l -23.3766,-23.3766 l 23.3766,-23.3766 l 23.3766,-23.3766 l 46.7532,46.7532 l -11.6883,11.6883 l -23.3766,-23.3766 l -11.6883,11.6883 ZM 900.0000,114.5455 l -23.3766,-23.3766 l 46.7532,-46.7532 l 11.6883,11.6883 l -23.3766,23.3766 l 11.6883,11.6883 l -23.3766,23.3766 l -23.3766,23.3766 l -23.3766,-23.3766 l 23.3766,-23.3766 l 23.3766,23.3766 l 23.3766,23.3766 l -46.7532,46.7532 l -11.6883,-11.6883 l 23.3766,-23.3766 l -11.6883,-11.6883 l 23.3766,-23.3766 l 23.3766,-23.3766 l 23.3766,23.3766 l -23.3766,23.3766 ZM 1087.0130,862.5974 l -23.3766,-23.3766 l 46.7532,-46.7532 l 11.6883,11.6883 l -23.3766,23.3766 l 11.6883,11.6883 l -23.3766,23.3766 l -23.3766,23.3766 l -23.3766,-23.3766 l 23.3766,-23.3766 l 23.3766,23.3766 l 23.3766,23.3766 l -46.7532,46.7532 l -11.6883,-11.6883 l 23.3766,-23.3766 l -11.6883,-11.6883 l 23.3766,-23.3766 l 23.3766,-23.3766 l 23.3766,23.3766 l -23.3766,23.3766 ZM 1087.0130,675.5844 l -23.3766,-23.3766 l 46.7532,-46.7532 l 11.6883,11.6883 l -23.3766,23.3766 l 11.6883,11.6883 l -23.3766,23.3766 l -23.3766,23.3766 l -46.7532,-46.7532 l 11.6883,-11.6883 l 23.3766,23.3766 l 11.6883,-11.6883 l 23.3766,23.3766 l 23.3766,23.3766 l -46.7532,46.7532 l -11.6883,-11.6883 l 23.3766,-23.3766 l -11.6883,-11.6883 l 23.3766,-23.3766 l 23.3766,-23.3766 l 23.3766,23.3766 l -23.3766,23.3766 ZM 1087.0130,488.5714 l -23.3766,-23.3766 l 46.7532,-46.7532 l 11.6883,11.6883 l -23.3766,23.3766 l 11.6883,11.6883 l -23.3766,23.3766 l -23.3766,23.3766 l -46.7532,-46.7532 l 11.6883,-11.6883 l 23.3766,23.3766 l 11.6883,-11.6883 l 23.3766,23.3766 l 23.3766,23.3766 l -46.7532,46.7532 l -11.6883,-11.6883 l 23.3766,-23.3766 l -11.6883,-11.6883 l 23.3766,-23.3766 l 23.3766,-23.3766 l 46.7532,46.7532 l -11.6883,11.6883 l -23.3766,-23.3766 l -11.6883,11.6883 ZM 1087.0130,301.5584 l -23.3766,-23.3766 l 46.7532,-46.7532 l 11.6883,11.6883 l -23.3766,23.3766 l 11.6883,11.6883 l -23.3766,23.3766 l -23.3766,23.3766 l -46.7532,-46.7532 l 11.6883,-11.6883 l 23.3766,23.3766 l 11.6883,-11.6883 l 23.3766,23.3766 l 23.3766,23.3766 l -46.7532,46.7532 l -11.6883,-11.6883 l 23.3766,-23.3766 l -11.6883,-11.6883 l 23.3766,-23.3766 l 23.3766,-23.3766 l 46.7532,46.7532 l -11.6883,11.6883 l -23.3766,-23.3766 l -11.6883,11.6883 ZM 1087.0130,114.5455 l -23.3766,-23.3766 l 46.7532,-46.7532 l 11.6883,11.6883 l -23.3766,23.3766 l 11.6883,11.6883 l -23.3766,23.3766 l -23.3766,23.3766 l -23.3766,-23.3766 l 23.3766,-23.3766 l 23.3766,23.3766 l 23.3766,23.3766 l -46.7532,46.7532 l -11.6883,-11.6883 l 23.3766,-23.3766 l -11.6883,-11.6883 l 23.3766,-23.3766 l 23.3766,-23.3766 l 23.3766,23.3766 l -23.3766,23.3766 ZM 1274.0260,862.5974 l -23.3766,-23.3766 l 46.7532,-46.7532 l 11.6883,11.6883 l -23.3766,23.3766 l 11.6883,11.6883 l -23.3766,23.3766 l -23.3766,23.3766 l -23.3766,-23.3766 l 23.3766,-23.3766 l 23.3766,23.3766 l 23.3766,23.3766 l -46.7532,46.7532 l -11.6883,-11.6883 l 23.3766,-23.3766 l -11.6883,-11.6883 l 23.3766,-23.3766 l 23.3766,-23.3766 l 23.3766,23.3766 l -23.3766,23.3766 ZM 1274.0260,675.5844 l -23.3766,-23.3766 l 46.7532,-46.7532 l 11.6883,11.6883 l -23.3766,23.3766 l 11.6883,11.6883 l -23.3766,23.3766 l -23.3766,23.3766 l -23.3766,-23.3766 l 23.3766,-23.3766 l 23.3766,23.3766 l 23.3766,23.3766 l -46.7532,46.7532 l -11.6883,-11.6883 l 23.3766,-23.3766 l -11.6883,-11.6883 l 23.3766,-23.3766 l 23.3766,-23.3766 l 46.7532,46.7532 l -11.6883,11.6883 l -23.3766,-23.3766 l -11.6883,11.6883 ZM 1274.0260,488.5714 l -23.3766,-23.3766 l 46.7532,-46.7532 l 11.6883,11.6883 l -23.3766,23.3766 l 11.6883,11.6883 l -23.3766,23.3766 l -23.3766,23.3766 l -46.7532,-46.7532 l 11.6883,-11.6883 l 23.3766,23.3766 l 11.6883,-11.6883 l 23.3766,23.3766 l 23.3766,23.3766 l -46.7532,46.7532 l -11.6883,-11.6883 l 23.3766,-23.3766 l -11.6883,-11.6883 l 23.3766,-23.3766 l 23.3766,-23.3766 l 46.7532,46.7532 l -11.6883,11.6883 l -23.3766,-23.3766 l -11.6883,11.6883 ZM 1274.0260,301.5584 l -23.3766,-23.3766 l 46.7532,-46.7532 l 11.6883,11.6883 l -23.3766,23.3766 l 11.6883,11.6883 l -23.3766,23.3766 l -23.3766,23.3766 l -46.7532,-46.7532 l 11.6883,-11.6883 l 23.3766,23.3766 l 11.6883,-11.6883 l 23.3766,23.3766 l 23.3766,23.3766 l -46.7532,46.7532 l -11.6883,-11.6883 l 23.3766,-23.3766 l -11.6883,-11.6883 l 23.3766,-23.3766 l 23.3766,-23.3766 l 46.7532,46.7532 l -11.6883,11.6883 l -23.3766,-23.3766 l -11.6883,11.6883 ZM 1274.0260,114.5455 l -23.3766,-23.3766 l 46.7532,-46.7532 l 11.6883,11.6883 l -23.3766,23.3766 l 11.6883,11.6883 l -23.3766,23.3766 l -23.3766,23.3766 l -23.3766,-23.3766 l 23.3766,-23.3766 l 23.3766,23.3766 l 23.3766,23.3766 l -46.7532,46.7532 l -11.6883,-11.6883 l 23.3766,-23.3766 l -11.6883,-11.6883 l 23.3766,-23.3766 l 23.3766,-23.3766 l 23.3766,23.3766 l -23.3766,23.3766 ZM 1461.0390,862.5974 l -23.3766,-23.3766 l 46.7532,-46.7532 l 11.6883,11.6883 l -23.3766,23.3766 l 11.6883,11.6883 l -23.3766,23.3766 l -23.3766,23.3766 l -23.3766,-23.3766 l 23.3766,-23.3766 l 23.3766,23.3766 l 23.3766,23.3766 l -46.7532,46.7532 l -11.6883,-11.6883 l 23.3766,-23.3766 l -11.6883,-11.6883 l 23.3766,-23.3766 l 23.3766,-23.3766 l 23.3766,23.3766 l -23.3766,23.3766 ZM 1461.0390,675.5844 l -23.3766,-23.3766 l 46.7532,-46.7532 l 11.6883,11.6883 l -23.3766,23.3766 l 11.6883,11.6883 l -23.3766,23.3766 l -23.3766,23.3766 l -46.7532,-46.7532 l 11.6883,-11.6883 l 23.3766,23.3766 l 11.6883,-11.6883 l 23.3766,23.3766 l 23.3766,23.3766 l -46.7532,46.7532 l -11.6883,-11.6883 l 23.3766,-23.3766 l -11.6883,-11.6883 l 23.3766,-23.3766 l 23.3766,-23.3766 l 46.7532,46.7532 l -11.6883,11.6883 l -23.3766,-23.3766 l -11.6883,11.6883 ZM 1461.0390,488.5714 l -23.3766,-23.3766 l 23.3766,-23.3766 l 23.3766,23.3766 l -23.3766,23.3766 l -23.3766,23.3766 l -46.7532,-46.7532 l 11.6883,-11.6883 l 23.3766,23.3766 l 11.6883,-11.6883 l 23.3766,23.3766 l 23.3766,23.3766 l -46.7532,46.7532 l -11.6883,-11.6883 l 23.3766,-23.3766 l -11.6883,-11.6883 l 23.3766,-23.3766 l 23.3766,-23.3766 l 46.7532,46.7532 l -11.6883,11.6883 l -23.3766,-23.3766 l -11.6883,11.6883 ZM 1461.0390,301.5584 l -23.3766,-23.3766 l 23.3766,-23.3766 l 23.3766,23.3766 l -23.3766,23.3766 l -23.3766,23.3766 l -46.7532,-46.7532 l 11.6883,-11.6883 l 23.3766,23.3766 l 11.6883,-11.6883 l 23.3766,23.3766 l 23.3766,23.3766 l -23.3766,23.3766 l -23.3766,-23.3766 l 23.3766,-23.3766 l 23.3766,-23.3766 l 46.7532,46.7532 l -11.6883,11.6883 l -23.3766,-23.3766 l -11.6883,11.6883 ZM 1461.0390,114.5455 l -23.3766,-23.3766 l 46.7532,-46.7532 l 11.6883,11.6883 l -23.3766,23.3766 l 11.6883,11.6883 l -23.3766,23.3766 l -23.3766,23.3766 l -23.3766,-23.3766 l 23.3766,-23.3766 l 23.3766,23.3766 l 23.3766,23.3766 l -23.3766,23.3766 l -23.3766,-23.3766 l 23.3766,-23.3766 l 23.3766,-23.3766 l 23.3766,23.3766 l -23.3766,23.3766 ZM 1648.0519,862.5974 l -23.3766,-23.3766 l 23.3766,-23.3766 l 23.3766,23.3766 l -23.3766,23.3766 l -23.3766,23.3766 l -23.3766,-23.3766 l 23.3766,-23.3766 l 23.3766,23.3766 l 23.3766,23.3766 l -46.7532,46.7532 l -11.6883,-11.6883 l 23.3766,-23.3766 l -11.6883,-11.6883 l 23.3766,-23.3766 l 23.3766,-23.3766 l 46.7532,46.7532 l -11.6883,11.6883 l -23.3766,-23.3766 l -11.6883,11.6883 ZM 1648.0519,675.5844 l -23.3766,-23.3766 l 23.3766,-23.3766 l 23.3766,23.3766 l -23.3766,23.3766 l -23.3766,23.3766 l -46.7532,-46.7532 l 11.6883,-11.6883 l 23.3766,23.3766 l 11.6883,-11.6883 l 23.3766,23.3766 l 23.3766,23.3766 l -23.3766,23.3766 l -23.3766,-23.3766 l 23.3766,-23.3766 l 23.3766,-23.3766 l 46.7532,46.7532 l -11.6883,11.6883 l -23.3766,-23.3766 l -11.6883,11.6883 ZM 1648.0519,488.5714 l -23.3766,-23.3766 l 23.3766,-23.3766 l 23.3766,23.3766 l -23.3766,23.3766 l -23.3766,23.3766 l -46.7532,-46.7532 l 11.6883,-11.6883 l 23.3766,23.3766 l 11.6883,-11.6883 l 23.3766,23.3766 l 23.3766,23.3766 l -23.3766,23.3766 l -23.3766,-23.3766 l 23.3766,-23.3766 l 23.3766,-23.3766 l 46.7532,46.7532 l -11.6883,11.6883 l -23.3766,-23.3766 l -11.6883,11.6883 ZM 1648.0519,301.5584 l -23.3766,-23.3766 l 23.3766,-23.3766 l 23.3766,23.3766 l -23.3766,23.3766 l -23.3766,23.3766 l -46.7532,-46.7532 l 11.6883,-11.6883 l 23.3766,23.3766 l 11.6883,-11.6883 l 23.3766,23.3766 l 23.3766,23.3766 l -23.3766,23.3766 l -23.3766,-23.3766 l 23.3766,-23.3766 l 23.3766,-23.3766 l 46.7532,46.7532 l -11.6883,11.6883 l -23.3766,-23.3766 l -11.6883,11.6883 ZM 1648.0519,114.5455 l -23.3766,-23.3766 l 46.7532,-46.7532 l 11.6883,11.6883 l -23.3766,23.3766 l 11.6883,11.6883 l -23.3766,23.3766 l -23.3766,23.3766 l -23.3766,-23.3766 l 23.3766,-23.3766 l 23.3766,23.3766 l 23.3766,23.3766 l -23.3766,23.3766 l -23.3766,-23.3766 l 23.3766,-23.3766 l 23.3766,-23.3766 l 46.7532,46.7532 l -11.6883,11.6883 l -23.3766,-23.3766 l -11.6883,11.6883 ZM 245.4545,769.0909 l -23.3766,-23.3766 l 11.6883,-11.6883 l -23.3766,-23.3766 l 11.6883,-11.6883 l 23.3766,23.3766 l 23.3766,23.3766 l -23.3766,23.3766 l -23.3766,23.3766 l 0.0000,-46.7532 l 23.3766,23.3766 l 23.3766,23.3766 l -46.7532,-0.0000 l 23.3766,-23.3766 l 23.3766,-23.3766 l 0.0000,46.7532 ZM 245.4545,582.0779 l -23.3766,-23.3766 l 11.6883,-11.6883 l -23.3766,-23.3766 l 11.6883,-11.6883 l 23.3766,23.3766 l 23.3766,23.3766 l -23.3766,23.3766 l -23.3766,23.3766 l 0.0000,-46.7532 l 23.3766,23.3766 l 23.3766,23.3766 l -11.6883,11.6883 l 23.3766,23.3766 l -11.6883,11.6883 l -23.3766,-23.3766 l -23.3766,-23.3766 l 23.3766,-23.3766 l 23.3766,-23.3766 l 0.0000,46.7532 ZM 245.4545,395.0649 l -23.3766,-23.3766 l 11.6883,-11.6883 l -23.3766,-23.3766 l 11.6883,-11.6883 l 23.3766,23.3766 l 23.3766,23.3766 l -23.3766,23.3766 l -23.3766,23.3766 l 0.0000,-46.7532 l 23.3766,23.3766 l 23.3766,23.3766 l -11.6883,11.6883 l 23.3766,23.3766 l -11.6883,11.6883 l -23.3766,-23.3766 l -23.3766,-23.3766 l 23.3766,-23.3766 l 23.3766,-23.3766 l 11.6883,11.6883 l 23.3766,-23.3766 l 11.6883,11.6883 l -23.3766,23.3766 l -23.3766,23.3766 ZM 245.4545,208.0519 l -23.3766,-23.3766 h 46.7532 l -23.3766,23.3766 l -23.3766,23.3766 l 0.0000,-46.7532 l 23.3766,23.3766 l 23.3766,23.3766 l -11.6883,11.6883 l 23.3766,23.3766 l -11.6883,11.6883 l -23.3766,-23.3766 l -23.3766,-23.3766 l 23.3766,-23.3766 l 23.3766,-23.3766 l 11.6883,11.6883 l 23.3766,-23.3766 l 11.6883,11.6883 l -23.3766,23.3766 l -23.3766,23.3766 ZM 432.4675,769.0909 l -23.3766,-23.3766 l 11.6883,-11.6883 l -23.3766,-23.3766 l 11.6883,-11.6883 l 23.3766,23.3766 l 23.3766,23.3766 l -23.3766,23.3766 l -23.3766,23.3766 l 0.0000,-46.7532 l 23.3766,23.3766 l 23.3766,23.3766 l -46.7532,-0.0000 l 23.3766,-23.3766 l 23.3766,-23.3766 l 11.6883,11.6883 l 23.3766,-23.3766 l 11.6883,11.6883 l -23.3766,23.3766 l -23.3766,23.3766 ZM 432.4675,582.0779 l -23.3766,-23.3766 l 11.6883,-11.6883 l -23.3766,-23.3766 l 11.6883,-11.6883 l 23.3766,23.3766 l 23.3766,23.3766 l -23.3766,23.3766 l -23.3766,23.3766 l 0.0000,-46.7532 l 23.3766,23.3766 l 23.3766,23.3766 l -11.6883,11.6883 l 23.3766,23.3766 l -11.6883,11.6883 l -23.3766,-23.3766 l -23.3766,-23.3766 l 23.3766,-23.3766 l 23.3766,-23.3766 l 11.6883,11.6883 l 23.3766,-23.3766 l 11.6883,11.6883 l -23.3766,23.3766 l -23.3766,23.3766 ZM 432.4675,395.0649 l -23.3766,-23.3766 l 11.6883,-11.6883 l -23.3766,-23.3766 l 11.6883,-11.6883 l 23.3766,23.3766 l 23.3766,23.3766 l -23.3766,23.3766 l -23.3766,23.3766 l -11.6883,-11.6883 l -23.3766,23.3766 l -11.6883,-11.6883 l 23.3766,-23.3766 l 23.3766,-23.3766 l 23.3766,23.3766 l 23.3766,23.3766 l -11.6883,11.6883 l 23.3766,23.3766 l -11.6883,11.6883 l -23.3766,-23.3766 l -23.3766,-23.3766 l 23.3766,-23.3766 l 23.3766,-23.3766 l 11.6883,11.6883 l 23.3766,-23.3766 l 11.6883,11.6883 l -23.3766,23.3766 l -23.3766,23.3766 ZM 432.4675,208.0519 l -23.3766,-23.3766 h 46.7532 l -23.3766,23.3766 l -23.3766,23.3766 l -11.6883,-11.6883 l -23.3766,23.3766 l -11.6883,-11.6883 l 23.3766,-23.3766 l 23.3766,-23.3766 l 23.3766,23.3766 l 23.3766,23.3766 l -11.6883,11.6883 l 23.3766,23.3766 l -11.6883,11.6883 l -23.3766,-23.3766 l -23.3766,-23.3766 l 23.3766,-23.3766 l 23.3766,-23.3766 l 11.6883,11.6883 l 23.3766,-23.3766 l 11.6883,11.6883 l -23.3766,23.3766 l -23.3766,23.3766 ZM 619.4805,769.0909 l -23.3766,-23.3766 l 11.6883,-11.6883 l -23.3766,-23.3766 l 11.6883,-11.6883 l 23.3766,23.3766 l 23.3766,23.3766 l -23.3766,23.3766 l -23.3766,23.3766 l -11.6883,-11.6883 l -23.3766,23.3766 l -11.6883,-11.6883 l 23.3766,-23.3766 l 23.3766,-23.3766 l 23.3766,23.3766 l 23.3766,23.3766 l -46.7532,-0.0000 l 23.3766,-23.3766 l 23.3766,-23.3766 l 11.6883,11.6883 l 23.3766,-23.3766 l 11.6883,11.6883 l -23.3766,23.3766 l -23.3766,23.3766 ZM 619.4805,582.0779 l -23.3766,-23.3766 l 11.6883,-11.6883 l -23.3766,-23.3766 l 11.6883,-11.6883 l 23.3766,23.3766 l 23.3766,23.3766 l -23.3766,23.3766 l -23.3766,23.3766 l -11.6883,-11.6883 l -23.3766,23.3766 l -11.6883,-11.6883 l 23.3766,-23.3766 l 23.3766,-23.3766 l 23.3766,23.3766 l 23.3766,23.3766 l -11.6883,11.6883 l 23.3766,23.3766 l -11.6883,11.6883 l -23.3766,-23.3766 l -23.3766,-23.3766 l 23.3766,-23.3766 l 23.3766,-23.3766 l 11.6883,11.6883 l 23.3766,-23.3766 l 11.6883,11.6883 l -23.3766,23.3766 l -23.3766,23.3766 ZM 619.4805,395.0649 l -23.3766,-23.3766 h 46.7532 l -23.3766,23.3766 l -23.3766,23.3766 l -11.6883,-11.6883 l -23.3766,23.3766 l -11.6883,-11.6883 l 23.3766,-23.3766 l 23.3766,-23.3766 l 23.3766,23.3766 l 23.3766,23.3766 l -11.6883,11.6883 l 23.3766,23.3766 l -11.6883,11.6883 l -23.3766,-23.3766 l -23.3766,-23.3766 l 23.3766,-23.3766 l 23.3766,-23.3766 l 11.6883,11.6883 l 23.3766,-23.3766 l 11.6883,11.6883 l -23.3766,23.3766 l -23.3766,23.3766 ZM 619.4805,208.0519 l -23.3766,-23.3766 h 46.7532 l -23.3766,23.3766 l -23.3766,23.3766 l -11.6883,-11.6883 l -23.3766,23.3766 l -11.6883,-11.6883 l 23.3766,-23.3766 l 23.3766,-23.3766 l 23.3766,23.3766 l 23.3766,23.3766 l -46.7532,-0.0000 l 23.3766,-23.3766 l 23.3766,-23.3766 l 11.6883,11.6883 l 23.3766,-23.3766 l 11.6883,11.6883 l -23.3766,23.3766 l -23.3766,23.3766 ZM 806.4935,769.0909 l -23.3766,-23.3766 l 11.6883,-11.6883 l -23.3766,-23.3766 l 11.6883,-11.6883 l 23.3766,23.3766 l 23.3766,23.3766 l -23.3766,23.3766 l -23.3766,23.3766 l -11.6883,-11.6883 l -23.3766,23.3766 l -11.6883,-11.6883 l 23.3766,-23.3766 l 23.3766,-23.3766 l 23.3766,23.3766 l 23.3766,23.3766 l -46.7532,-0.0000 l 23.3766,-23.3766 l 23.3766,-23.3766 l 11.6883,11.6883 l 23.3766,-23.3766 l 11.6883,11.6883 l -23.3766,23.3766 l -23.3766,23.3766 ZM 806.4935,582.0779 l -23.3766,-23.3766 l 11.6883,-11.6883 l -23.3766,-23.3766 l 11.6883,-11.6883 l 23.3766,23.3766 l 23.3766,23.3766 l -23.3766,23.3766 l -23.3766,23.3766 l -11.6883,-11.6883 l -23.3766,23.3766 l -11.6883,-11.6883 l 23.3766,-23.3766 l 23.3766,-23.3766 l 23.3766,23.3766 l 23.3766,23.3766 l -11.6883,11.6883 l 23.3766,23.3766 l -11.6883,11.6883 l -23.3766,-23.3766 l -23.3766,-23.3766 l 23.3766,-23.3766 l 23.3766,-23.3766 l 0.0000,46.7532 ZM 806.4935,395.0649 l -23.3766,-23.3766 l 11.6883,-11.6883 l -23.3766,-23.3766 l 11.6883,-11.6883 l 23.3766,23.3766 l 23.3766,23.3766 l -23.3766,23.3766 l -23.3766,23.3766 l -11.6883,-11.6883 l -23.3766,23.3766 l -11.6883,-11.6883 l 23.3766,-23.3766 l 23.3766,-23.3766 l 23.3766,23.3766 l 23.3766,23.3766 l -11.6883,11.6883 l 23.3766,23.3766 l -11.6883,11.6883 l -23.3766,-23.3766 l -23.3766,-23.3766 l 23.3766,-23.3766 l 23.3766,-23.3766 l 0.0000,46.7532 ZM 806.4935,208.0519 l -23.3766,-23.3766 h 46.7532 l -23.3766,23.3766 l -23.3766,23.3766 l -11.6883,-11.6883 l -23.3766,23.3766 l -11.6883,-11.6883 l 23.3766,-23.3766 l 23.3766,-23.3766 l 23.3766,23.3766 l 23.3766,23.3766 l -11.6883,11.6883 l 23.3766,23.3766 l -11.6883,11.6883 l -23.3766,-23.3766 l -23.3766,-23.3766 l 23.3766,-23.3766 l 23.3766,-23.3766 l 11.6883,11.6883 l 23.3766,-23.3766 l 11.6883,11.6883 l -23.3766,23.3766 l -23.3766,23.3766 ZM 993.5065,769.0909 l -23.3766,-23.3766 l 11.6883,-11.6883 l -23.3766,-23.3766 l 11.6883,-11.6883 l 23.3766,23.3766 l 23.3766,23.3766 l -23.3766,23.3766 l -23.3766,23.3766 l -11.6883,-11.6883 l -23.3766,23.3766 l -11.6883,-11.6883 l 23.3766,-23.3766 l 23.3766,-23.3766 l 23.3766,23.3766 l 23.3766,23.3766 l -46.7532,-0.0000 l 23.3766,-23.3766 l 23.3766,-23.3766 l 11.6883,11.6883 l 23.3766,-23.3766 l 11.6883,11.6883 l -23.3766,23.3766 l -23.3766,23.3766 ZM 993.5065,582.0779 l -23.3766,-23.3766 l 11.6883,-11.6883 l -23.3766,-23.3766 l 11.6883,-11.6883 l 23.3766,23.3766 l 23.3766,23.3766 l -23.3766,23.3766 l -23.3766,23.3766 l 0.0000,-46.7532 l 23.3766,23.3766 l 23.3766,23.3766 l -11.6883,11.6883 l 23.3766,23.3766 l -11.6883,11.6883 l -23.3766,-23.3766 l -23.3766,-23.3766 l 23.3766,-23.3766 l 23.3766,-23.3766 l 11.6883,11.6883 l 23.3766,-23.3766 l 11.6883,11.6883 l -23.3766,23.3766 l -23.3766,23.3766 ZM 993.5065,395.0649 l -23.3766,-23.3766 l 11.6883,-11.6883 l -23.3766,-23.3766 l 11.6883,-11.6883 l 23.3766,23.3766 l 23.3766,23.3766 l -23.3766,23.3766 l -23.3766,23.3766 l 0.0000,-46.7532 l 23.3766,23.3766 l 23.3766,23.3766 l -11.6883,11.6883 l 23.3766,23.3766 l -11.6883,11.6883 l -23.3766,-23.3766 l -23.3766,-23.3766 l 23.3766,-23.3766 l 23.3766,-23.3766 l 11.6883,11.6883 l 23.3766,-23.3766 l 11.6883,11.6883 l -23.3766,23.3766 l -23.3766,23.3766 ZM 993.5065,208.0519 l -23.3766,-23.3766 h 46.7532 l -23.3766,23.3766 l -23.3766,23.3766 l -11.6883,-11.6883 l -23.3766,23.3766 l -11.6883,-11.6883 l 23.3766,-23.3766 l 23.3766,-23.3766 l 23.3766,23.3766 l 23.3766,23.3766 l -11.6883,11.6883 l 23.3766,23.3766 l -11.6883,11.6883 l -23.3766,-23.3766 l -23.3766,-23.3766 l 23.3766,-23.3766 l 23.3766,-23.3766 l 11.6883,11.6883 l 23.3766,-23.3766 l 11.6883,11.6883 l -23.3766,23.3766 l -23.3766,23.3766 ZM 1180.5195,769.0909 l -23.3766,-23.3766 h 46.7532 l -23.3766,23.3766 l -23.3766,23.3766 l -11.6883,-11.6883 l -23.3766,23.3766 l -11.6883,-11.6883 l 23.3766,-23.3766 l 23.3766,-23.3766 l 23.3766,23.3766 l 23.3766,23.3766 l -46.7532,-0.0000 l 23.3766,-23.3766 l 23.3766,-23.3766 l 11.6883,11.6883 l 23.3766,-23.3766 l 11.6883,11.6883 l -23.3766,23.3766 l -23.3766,23.3766 ZM 1180.5195,582.0779 l -23.3766,-23.3766 l 11.6883,-11.6883 l -23.3766,-23.3766 l 11.6883,-11.6883 l 23.3766,23.3766 l 23.3766,23.3766 l -23.3766,23.3766 l -23.3766,23.3766 l -11.6883,-11.6883 l -23.3766,23.3766 l -11.6883,-11.6883 l 23.3766,-23.3766 l 23.3766,-23.3766 l 23.3766,23.3766 l 23.3766,23.3766 l -46.7532,-0.0000 l 23.3766,-23.3766 l 23.3766,-23.3766 l 11.6883,11.6883 l 23.3766,-23.3766 l 11.6883,11.6883 l -23.3766,23.3766 l -23.3766,23.3766 ZM 1180.5195,395.0649 l -23.3766,-23.3766 l 11.6883,-11.6883 l -23.3766,-23.3766 l 11.6883,-11.6883 l 23.3766,23.3766 l 23.3766,23.3766 l -23.3766,23.3766 l -23.3766,23.3766 l -11.6883,-11.6883 l -23.3766,23.3766 l -11.6883,-11.6883 l 23.3766,-23.3766 l 23.3766,-23.3766 l 23.3766,23.3766 l 23.3766,23.3766 l -11.6883,11.6883 l 23.3766,23.3766 l -11.6883,11.6883 l -23.3766,-23.3766 l -23.3766,-23.3766 l 23.3766,-23.3766 l 23.3766,-23.3766 l 11.6883,11.6883 l 23.3766,-23.3766 l 11.6883,11.6883 l -23.3766,23.3766 l -23.3766,23.3766 ZM 1180.5195,208.0519 l -23.3766,-23.3766 h 46.7532 l -23.3766,23.3766 l -23.3766,23.3766 l -11.6883,-11.6883 l -23.3766,23.3766 l -11.6883,-11.6883 l 23.3766,-23.3766 l 23.3766,-23.3766 l 23.3766,23.3766 l 23.3766,23.3766 l -11.6883,11.6883 l 23.3766,23.3766 l -11.6883,11.6883 l -23.3766,-23.3766 l -23.3766,-23.3766 l 23.3766,-23.3766 l 23.3766,-23.3766 l 11.6883,11.6883 l 23.3766,-23.3766 l 11.6883,11.6883 l -23.3766,23.3766 l -23.3766,23.3766 ZM 1367.5325,769.0909 l -23.3766,-23.3766 l 11.6883,-11.6883 l -23.3766,-23.3766 l 11.6883,-11.6883 l 23.3766,23.3766 l 23.3766,23.3766 l -23.3766,23.3766 l -23.3766,23.3766 l -11.6883,-11.6883 l -23.3766,23.3766 l -11.6883,-11.6883 l 23.3766,-23.3766 l 23.3766,-23.3766 l 23.3766,23.3766 l 23.3766,23.3766 l -46.7532,-0.0000 l 23.3766,-23.3766 l 23.3766,-23.3766 l 11.6883,11.6883 l 23.3766,-23.3766 l 11.6883,11.6883 l -23.3766,23.3766 l -23.3766,23.3766 ZM 1367.5325,582.0779 l -23.3766,-23.3766 l 11.6883,-11.6883 l -23.3766,-23.3766 l 11.6883,-11.6883 l 23.3766,23.3766 l 23.3766,23.3766 l -23.3766,23.3766 l -23.3766,23.3766 l -11.6883,-11.6883 l -23.3766,23.3766 l -11.6883,-11.6883 l 23.3766,-23.3766 l 23.3766,-23.3766 l 23.3766,23.3766 l 23.3766,23.3766 l -11.6883,11.6883 l 23.3766,23.3766 l -11.6883,11.6883 l -23.3766,-23.3766 l -23.3766,-23.3766 l 23.3766,-23.3766 l 23.3766,-23.3766 l 11.6883,11.6883 l 23.3766,-23.3766 l 11.6883,11.6883 l -23.3766,23.3766 l -23.3766,23.3766 ZM 1367.5325,395.0649 l -23.3766,-23.3766 l 11.6883,-11.6883 l -23.3766,-23.3766 l 11.6883,-11.6883 l 23.3766,23.3766 l 23.3766,23.3766 l -23.3766,23.3766 l -23.3766,23.3766 l -11.6883,-11.6883 l -23.3766,23.3766 l -11.6883,-11.6883 l 23.3766,-23.3766 l 23.3766,-23.3766 l 23.3766,23.3766 l 23.3766,23.3766 l -11.6883,11.6883 l 23.3766,23.3766 l -11.6883,11.6883 l -23.3766,-23.3766 l -23.3766,-23.3766 l 23.3766,-23.3766 l 23.3766,-23.3766 l 0.0000,46.7532 ZM 1367.5325,208.0519 l -23.3766,-23.3766 h 46.7532 l -23.3766,23.3766 l -23.3766,23.3766 l -11.6883,-11.6883 l -23.3766,23.3766 l -11.6883,-11.6883 l 23.3766,-23.3766 l 23.3766,-23.3766 l 23.3766,23.3766 l 23.3766,23.3766 l -11.6883,11.6883 l 23.3766,23.3766 l -11.6883,11.6883 l -23.3766,-23.3766 l -23.3766,-23.3766 l 23.3766,-23.3766 l 23.3766,-23.3766 l 0.0000,46.7532 ZM 1554.5455,769.0909 l -23.3766,-23.3766 l 11.6883,-11.6883 l -23.3766,-23.3766 l 11.6883,-11.6883 l 23.3766,23.3766 l 23.3766,23.3766 l -23.3766,23.3766 l -23.3766,23.3766 l -11.6883,-11.6883 l -23.3766,23.3766 l -11.6883,-11.6883 l 23.3766,-23.3766 l 23.3766,-23.3766 l 23.3766,23.3766 l 23.3766,23.3766 l -46.7532,-0.0000 l 23.3766,-23.3766 l 23.3766,-23.3766 l 0.0000,46.7532 ZM 1554.5455,582.0779 l -23.3766,-23.3766 l 11.6883,-11.6883 l -23.3766,-23.3766 l 11.6883,-11.6883 l 23.3766,23.3766 l 23.3766,23.3766 l -23.3766,23.3766 l -23.3766,23.3766 l -11.6883,-11.6883 l -23.3766,23.3766 l -11.6883,-11.6883 l 23.3766,-23.3766 l 23.3766,-23.3766 l 23.3766,23.3766 l 23.3766,23.3766 l -11.6883,11.6883 l 23.3766,23.3766 l -11.6883,11.6883 l -23.3766,-23.3766 l -23.3766,-23.3766 l 23.3766,-23.3766 l 23.3766,-23.3766 l 0.0000,46.7532 ZM 1554.5455,395.0649 l -23.3766,-23.3766 l 11.6883,-11.6883 l -23.3766,-23.3766 l 11.6883,-11.6883 l 23.3766,23.3766 l 23.3766,23.3766 l -23.3766,23.3766 l -23.3766,23.3766 l 0.0000,-46.7532 l 23.3766,23.3766 l 23.3766,23.3766 l -11.6883,11.6883 l 23.3766,23.3766 l -11.6883,11.6883 l -23.3766,-23.3766 l -23.3766,-23.3766 l 23.3766,-23.3766 l 23.3766,-23.3766 l 0.0000,46.7532 ZM 1554.5455,208.0519 l -23.3766,-23.3766 h 46.7532 l -23.3766,23.3766 l -23.3766,23.3766 l 0.0000,-46.7532 l 23.3766,23.3766 l 23.3766,23.3766 l -11.6883,11.6883 l 23.3766,23.3766 l -11.6883,11.6883 l -23.3766,-23.3766 l -23.3766,-23.3766 l 23.3766,-23.3766 l 23.3766,-23.3766 l 0.0000,46.7532 ZM 151.9481,769.0909 h 5.8442 v 93.5065 h -11.6883 v -187.0130 h 11.6883 v 93.5065 ZM 151.9481,582.0779 h 5.8442 v 93.5065 h -11.6883 v -187.0130 h 11.6883 v 93.5065 ZM 151.9481,395.0649 h 5.8442 v 93.5065 h -11.6883 v -187.0130 h 11.6883 v 93.5065 ZM 151.9481,208.0519 h 5.8442 v 93.5065 h -11.6883 v -187.0130 h 11.6883 v 93.5065 ZM 245.4545,862.5974 l 0.0000,-5.8442 l 93.5065,0.0000 l -0.0000,11.6883 l -187.0130,-0.0000 l 0.0000,-11.6883 l 93.5065,0.0000 ZM 245.4545,114.5455 l 0.0000,-5.8442 l 93.5065,0.0000 l -0.0000,11.6883 l -187.0130,-0.0000 l 0.0000,-11.6883 l 93.5065,0.0000 ZM 338.9610,769.0909 h 5.8442 v 93.5065 h -11.6883 v -187.0130 h 11.6883 v 93.5065 ZM 338.9610,582.0779 h 5.8442 v 93.5065 h -11.6883 v -187.0130 h 11.6883 v 93.5065 ZM 432.4675,862.5974 l 0.0000,-5.8442 l 93.5065,0.0000 l -0.0000,11.6883 l -187.0130,-0.0000 l 0.0000,-11.6883 l 93.5065,0.0000 ZM 432.4675,114.5455 l 0.0000,-5.8442 l 93.5065,0.0000 l -0.0000,11.6883 l -187.0130,-0.0000 l 0.0000,-11.6883 l 93.5065,0.0000 ZM 619.4805,862.5974 l 0.0000,-5.8442 l 93.5065,0.0000 l -0.0000,11.6883 l -187.0130,-0.0000 l 0.0000,-11.6883 l 93.5065,0.0000 ZM 619.4805,301.5584 l 0.0000,-5.8442 l 93.5065,0.0000 l -0.0000,11.6883 l -187.0130,-0.0000 l 0.0000,-11.6883 l 93.5065,0.0000 ZM 619.4805,114.5455 l 0.0000,-5.8442 l 93.5065,0.0000 l -0.0000,11.6883 l -187.0130,-0.0000 l 0.0000,-11.6883 l 93.5065,0.0000 ZM 806.4935,862.5974 l 0.0000,-5.8442 l 93.5065,0.0000 l -0.0000,11.6883 l -187.0130,-0.0000 l 0.0000,-11.6883 l 93.5065,0.0000 ZM 806.4935,114.5455 l 0.0000,-5.8442 l 93.5065,0.0000 l -0.0000,11.6883 l -187.0130,-0.0000 l 0.0000,-11.6883 l 93.5065,0.0000 ZM 900.0000,582.0779 h 5.8442 v 93.5065 h -11.6883 v -187.0130 h 11.6883 v 93.5065 ZM 900.0000,395.0649 h 5.8442 v 93.5065 h -11.6883 v -187.0130 h 11.6883 v 93.5065 ZM 993.5065,862.5974 l 0.0000,-5.8442 l 93.5065,0.0000 l -0.0000,11.6883 l -187.0130,-0.0000 l 0.0000,-11.6883 l 93.5065,0.0000 ZM 993.5065,114.5455 l 0.0000,-5.8442 l 93.5065,0.0000 l -0.0000,11.6883 l -187.0130,-0.0000 l 0.0000,-11.6883 l 93.5065,0.0000 ZM 1180.5195,862.5974 l 0.0000,-5.8442 l 93.5065,0.0000 l -0.0000,11.6883 l -187.0130,-0.0000 l 0.0000,-11.6883 l 93.5065,0.0000 ZM 1180.5195,675.5844 l 0.0000,-5.8442 l 93.5065,0.0000 l -0.0000,11.6883 l -187.0130,-0.0000 l 0.0000,-11.6883 l 93.5065,0.0000 ZM 1180.5195,114.5455 l 0.0000,-5.8442 l 93.5065,0.0000 l -0.0000,11.6883 l -187.0130,-0.0000 l 0.0000,-11.6883 l 93.5065,0.0000 ZM 1367.5325,862.5974 l 0.0000,-5.8442 l 93.5065,0.0000 l -0.0000,11.6883 l -187.0130,-0.0000 l 0.0000,-11.6883 l 93.5065,0.0000 ZM 1367.5325,114.5455 l 0.0000,-5.8442 l 93.5065,0.0000 l -0.0000,11.6883 l -187.0130,-0.0000 l 0.0000,-11.6883 l 93.5065,0.0000 ZM 1461.0390,395.0649 h 5.8442 v 93.5065 h -11.6883 v -187.0130 h 11.6883 v 93.5065 ZM 1461.0390,208.0519 h 5.8442 v 93.5065 h -11.6883 v -187.0130 h 11.6883 v 93.5065 ZM 1554.5455,862.5974 l 0.0000,-5.8442 l 93.5065,0.0000 l -0.0000,11.6883 l -187.0130,-0.0000 l 0.0000,-11.6883 l 93.5065,0.0000 ZM 1554.5455,114.5455 l 0.0000,-5.8442 l 93.5065,0.0000 l -0.0000,11.6883 l -187.0130,-0.0000 l 0.0000,-11.6883 l 93.5065,0.0000 ZM 1648.0519,769.0909 h 5.8442 v 93.5065 h -11.6883 v -187.0130 h 11.6883 v 93.5065 ZM 1648.0519,582.0779 h 5.8442 v 93.5065 h -11.6883 v -187.0130 h 11.6883 v 93.5065 ZM 1648.0519,395.0649 h 5.8442 v 93.5065 h -11.6883 v -187.0130 h 11.6883 v 93.5065 ZM 1648.0519,208.0519 h 5.8442 v 93.5065 h -11.6883 v -187.0130 h 11.6883 v 93.5065 Z"/></g></g></svg>